<?xml version="1.0" encoding="utf-8" standalone="no"?>
<!DOCTYPE svg PUBLIC "-//W3C//DTD SVG 1.1//EN"
  "http://www.w3.org/Graphics/SVG/1.1/DTD/svg11.dtd">
<svg xmlns:xlink="http://www.w3.org/1999/xlink" width="432pt" height="432pt" viewBox="0 0 432 432" xmlns="http://www.w3.org/2000/svg" version="1.1">
 <metadata>
  <rdf:RDF xmlns:dc="http://purl.org/dc/elements/1.1/" xmlns:cc="http://creativecommons.org/ns#" xmlns:rdf="http://www.w3.org/1999/02/22-rdf-syntax-ns#">
   <cc:Work>
    <dc:type rdf:resource="http://purl.org/dc/dcmitype/StillImage"/>
    <dc:date>2023-12-28T12:04:04.953932</dc:date>
    <dc:format>image/svg+xml</dc:format>
    <dc:creator>
     <cc:Agent>
      <dc:title>Matplotlib v3.7.1, https://matplotlib.org/</dc:title>
     </cc:Agent>
    </dc:creator>
   </cc:Work>
  </rdf:RDF>
 </metadata>
 <defs>
  <style type="text/css">*{stroke-linejoin: round; stroke-linecap: butt}</style>
 </defs>
 <g id="figure_1">
  <g id="patch_1">
   <path d="M 0 432 
L 432 432 
L 432 0 
L 0 0 
z
" style="fill: #9f9f9f"/>
  </g>
  <g id="axes_1">
   <g id="patch_2">
    <path d="M 54 384.48 
L 388.8 384.48 
L 388.8 51.84 
L 54 51.84 
z
" style="fill: #9f9f9f"/>
   </g>
   <g id="matplotlib.axis_1">
    <g id="xtick_1">
     <g id="line2d_1">
      <defs>
       <path id="m09858860cf" d="M 0 0 
L 0 3.5 
" style="stroke: #c6c8cb; stroke-width: 0.8"/>
      </defs>
      <g>
       <use xlink:href="#m09858860cf" x="69.218182" y="384.48" style="fill: #c6c8cb; stroke: #c6c8cb; stroke-width: 0.8"/>
      </g>
     </g>
     <g id="text_1">
      <!-- 0.0 -->
      <g style="fill: #c6c8cb" transform="translate(62.363494 398.600312) scale(0.1 -0.1)">
       <defs>
        <path id="DINPro-Bold-30" d="M 3123 1318 
L 3123 3238 
C 3123 4109 2483 4595 1741 4595 
C 998 4595 352 4109 352 3238 
L 352 1318 
C 352 448 998 -38 1741 -38 
C 2483 -38 3123 448 3123 1318 
z
M 2291 1325 
C 2291 941 2067 710 1741 710 
C 1414 710 1184 941 1184 1325 
L 1184 3226 
C 1184 3610 1414 3846 1741 3846 
C 2067 3846 2291 3610 2291 3226 
L 2291 1325 
z
" transform="scale(0.015625)"/>
        <path id="DINPro-Bold-2e" d="M 1389 0 
L 1389 947 
L 435 947 
L 435 0 
L 1389 0 
z
" transform="scale(0.015625)"/>
       </defs>
       <use xlink:href="#DINPro-Bold-30"/>
       <use xlink:href="#DINPro-Bold-2e" x="54.299988"/>
       <use xlink:href="#DINPro-Bold-30" x="82.799973"/>
      </g>
     </g>
    </g>
    <g id="xtick_2">
     <g id="line2d_2">
      <g>
       <use xlink:href="#m09858860cf" x="107.263636" y="384.48" style="fill: #c6c8cb; stroke: #c6c8cb; stroke-width: 0.8"/>
      </g>
     </g>
     <g id="text_2">
      <!-- 0.5 -->
      <g style="fill: #c6c8cb" transform="translate(100.408949 398.600312) scale(0.1 -0.1)">
       <defs>
        <path id="DINPro-Bold-35" d="M 3162 1536 
C 3162 1965 3110 2394 2752 2752 
C 2566 2938 2278 3059 1901 3059 
C 1594 3059 1338 2944 1216 2829 
L 1216 3808 
L 3059 3808 
L 3059 4557 
L 461 4557 
L 461 1984 
L 1222 1984 
C 1280 2163 1434 2355 1773 2355 
C 2176 2355 2330 2061 2330 1536 
C 2330 1248 2298 1005 2150 858 
C 2048 755 1914 710 1754 710 
C 1408 710 1242 915 1197 1274 
L 365 1274 
C 390 941 454 608 736 326 
C 934 128 1280 -38 1754 -38 
C 2227 -38 2554 128 2758 333 
C 3091 666 3162 1024 3162 1536 
z
" transform="scale(0.015625)"/>
       </defs>
       <use xlink:href="#DINPro-Bold-30"/>
       <use xlink:href="#DINPro-Bold-2e" x="54.299988"/>
       <use xlink:href="#DINPro-Bold-35" x="82.799973"/>
      </g>
     </g>
    </g>
    <g id="xtick_3">
     <g id="line2d_3">
      <g>
       <use xlink:href="#m09858860cf" x="145.309091" y="384.48" style="fill: #c6c8cb; stroke: #c6c8cb; stroke-width: 0.8"/>
      </g>
     </g>
     <g id="text_3">
      <!-- 1.0 -->
      <g style="fill: #c6c8cb" transform="translate(138.454403 398.600312) scale(0.1 -0.1)">
       <defs>
        <path id="DINPro-Bold-31" d="M 2419 0 
L 2419 4557 
L 1587 4557 
L 659 3750 
L 659 2854 
L 1587 3661 
L 1587 0 
L 2419 0 
z
" transform="scale(0.015625)"/>
       </defs>
       <use xlink:href="#DINPro-Bold-31"/>
       <use xlink:href="#DINPro-Bold-2e" x="54.299988"/>
       <use xlink:href="#DINPro-Bold-30" x="82.799973"/>
      </g>
     </g>
    </g>
    <g id="xtick_4">
     <g id="line2d_4">
      <g>
       <use xlink:href="#m09858860cf" x="183.354545" y="384.48" style="fill: #c6c8cb; stroke: #c6c8cb; stroke-width: 0.8"/>
      </g>
     </g>
     <g id="text_4">
      <!-- 1.5 -->
      <g style="fill: #c6c8cb" transform="translate(176.499858 398.600312) scale(0.1 -0.1)">
       <use xlink:href="#DINPro-Bold-31"/>
       <use xlink:href="#DINPro-Bold-2e" x="54.299988"/>
       <use xlink:href="#DINPro-Bold-35" x="82.799973"/>
      </g>
     </g>
    </g>
    <g id="xtick_5">
     <g id="line2d_5">
      <g>
       <use xlink:href="#m09858860cf" x="221.4" y="384.48" style="fill: #c6c8cb; stroke: #c6c8cb; stroke-width: 0.8"/>
      </g>
     </g>
     <g id="text_5">
      <!-- 2.0 -->
      <g style="fill: #c6c8cb" transform="translate(214.545312 398.600312) scale(0.1 -0.1)">
       <defs>
        <path id="DINPro-Bold-32" d="M 3149 0 
L 3149 749 
L 1389 749 
L 2662 2227 
C 2976 2592 3149 2829 3149 3270 
C 3149 4090 2573 4595 1766 4595 
C 986 4595 378 4096 378 3264 
L 1210 3264 
C 1210 3706 1491 3846 1766 3846 
C 2118 3846 2317 3616 2317 3277 
C 2317 3066 2246 2925 2080 2726 
L 378 749 
L 378 0 
L 3149 0 
z
" transform="scale(0.015625)"/>
       </defs>
       <use xlink:href="#DINPro-Bold-32"/>
       <use xlink:href="#DINPro-Bold-2e" x="54.299988"/>
       <use xlink:href="#DINPro-Bold-30" x="82.799973"/>
      </g>
     </g>
    </g>
    <g id="xtick_6">
     <g id="line2d_6">
      <g>
       <use xlink:href="#m09858860cf" x="259.445455" y="384.48" style="fill: #c6c8cb; stroke: #c6c8cb; stroke-width: 0.8"/>
      </g>
     </g>
     <g id="text_6">
      <!-- 2.5 -->
      <g style="fill: #c6c8cb" transform="translate(252.590767 398.600312) scale(0.1 -0.1)">
       <use xlink:href="#DINPro-Bold-32"/>
       <use xlink:href="#DINPro-Bold-2e" x="54.299988"/>
       <use xlink:href="#DINPro-Bold-35" x="82.799973"/>
      </g>
     </g>
    </g>
    <g id="xtick_7">
     <g id="line2d_7">
      <g>
       <use xlink:href="#m09858860cf" x="297.490909" y="384.48" style="fill: #c6c8cb; stroke: #c6c8cb; stroke-width: 0.8"/>
      </g>
     </g>
     <g id="text_7">
      <!-- 3.0 -->
      <g style="fill: #c6c8cb" transform="translate(290.636222 398.600312) scale(0.1 -0.1)">
       <defs>
        <path id="DINPro-Bold-33" d="M 3168 1318 
C 3168 1869 2906 2182 2579 2355 
C 2880 2515 3104 2797 3104 3290 
C 3104 4058 2522 4595 1715 4595 
C 947 4595 339 4109 320 3296 
L 1152 3296 
C 1171 3642 1402 3846 1715 3846 
C 2016 3846 2272 3648 2272 3264 
C 2272 2944 2099 2694 1696 2694 
L 1574 2694 
L 1574 1971 
L 1696 1971 
C 2106 1971 2336 1722 2336 1344 
C 2336 934 2080 710 1722 710 
C 1395 710 1114 896 1101 1306 
L 269 1306 
C 282 352 979 -38 1722 -38 
C 2502 -38 3168 410 3168 1318 
z
" transform="scale(0.015625)"/>
       </defs>
       <use xlink:href="#DINPro-Bold-33"/>
       <use xlink:href="#DINPro-Bold-2e" x="54.299988"/>
       <use xlink:href="#DINPro-Bold-30" x="82.799973"/>
      </g>
     </g>
    </g>
    <g id="xtick_8">
     <g id="line2d_8">
      <g>
       <use xlink:href="#m09858860cf" x="335.536364" y="384.48" style="fill: #c6c8cb; stroke: #c6c8cb; stroke-width: 0.8"/>
      </g>
     </g>
     <g id="text_8">
      <!-- 3.5 -->
      <g style="fill: #c6c8cb" transform="translate(328.681676 398.600312) scale(0.1 -0.1)">
       <use xlink:href="#DINPro-Bold-33"/>
       <use xlink:href="#DINPro-Bold-2e" x="54.299988"/>
       <use xlink:href="#DINPro-Bold-35" x="82.799973"/>
      </g>
     </g>
    </g>
    <g id="xtick_9">
     <g id="line2d_9">
      <g>
       <use xlink:href="#m09858860cf" x="373.581818" y="384.48" style="fill: #c6c8cb; stroke: #c6c8cb; stroke-width: 0.8"/>
      </g>
     </g>
     <g id="text_9">
      <!-- 4.0 -->
      <g style="fill: #c6c8cb" transform="translate(366.727131 398.600312) scale(0.1 -0.1)">
       <defs>
        <path id="DINPro-Bold-34" d="M 3277 646 
L 3277 1434 
L 2861 1434 
L 2861 2285 
L 2061 2285 
L 2061 1434 
L 1107 1434 
L 2669 4557 
L 1760 4557 
L 198 1434 
L 198 646 
L 2061 646 
L 2061 0 
L 2861 0 
L 2861 646 
L 3277 646 
z
" transform="scale(0.015625)"/>
       </defs>
       <use xlink:href="#DINPro-Bold-34"/>
       <use xlink:href="#DINPro-Bold-2e" x="54.299988"/>
       <use xlink:href="#DINPro-Bold-30" x="82.799973"/>
      </g>
     </g>
    </g>
    <g id="text_10">
     <!-- P(q) -->
     <g style="fill: #c6c8cb" transform="translate(212.096094 418.569063) scale(0.1 -0.1)">
      <defs>
       <path id="DINPro-Bold-50" d="M 3802 3136 
C 3802 3910 3238 4557 2298 4557 
L 531 4557 
L 531 0 
L 1421 0 
L 1421 1715 
L 2298 1715 
C 3238 1715 3802 2362 3802 3136 
z
M 2912 3136 
C 2912 2765 2656 2515 2253 2515 
L 1421 2515 
L 1421 3763 
L 2253 3763 
C 2656 3763 2912 3507 2912 3136 
z
" transform="scale(0.015625)"/>
       <path id="DINPro-Bold-28" d="M 1798 -45 
C 1645 109 1549 198 1440 384 
C 1376 499 1344 678 1344 922 
L 1344 3635 
C 1344 3878 1376 4058 1440 4173 
C 1549 4358 1645 4448 1798 4602 
L 1242 5158 
C 1030 4947 826 4749 678 4499 
C 531 4243 512 3955 512 3674 
L 512 883 
C 512 602 531 314 678 58 
C 826 -192 1030 -390 1242 -602 
L 1798 -45 
z
" transform="scale(0.015625)"/>
       <path id="DINPro-Bold-71" d="M 3123 -1222 
L 3123 3334 
L 2310 3334 
L 2310 3021 
C 2080 3277 1837 3373 1485 3373 
C 1158 3373 851 3258 666 3072 
C 333 2739 326 2170 326 1670 
C 326 1171 333 595 666 262 
C 851 77 1152 -38 1478 -38 
C 1818 -38 2074 51 2291 294 
L 2291 -1222 
L 3123 -1222 
z
M 2291 1670 
C 2291 1126 2221 710 1722 710 
C 1222 710 1158 1126 1158 1670 
C 1158 2214 1222 2624 1722 2624 
C 2221 2624 2291 2214 2291 1670 
z
" transform="scale(0.015625)"/>
       <path id="DINPro-Bold-29" d="M 1638 883 
L 1638 3674 
C 1638 3955 1619 4243 1472 4499 
C 1325 4749 1120 4947 909 5158 
L 346 4595 
C 499 4442 595 4358 704 4173 
C 768 4058 800 3878 800 3635 
L 800 922 
C 800 678 768 499 704 384 
C 595 198 499 115 346 -38 
L 909 -602 
C 1120 -390 1325 -192 1472 58 
C 1619 314 1638 602 1638 883 
z
" transform="scale(0.015625)"/>
      </defs>
      <use xlink:href="#DINPro-Bold-50"/>
      <use xlink:href="#DINPro-Bold-28" x="62.799988"/>
      <use xlink:href="#DINPro-Bold-71" x="96.399979"/>
      <use xlink:href="#DINPro-Bold-29" x="152.499969"/>
     </g>
    </g>
   </g>
   <g id="matplotlib.axis_2">
    <g id="ytick_1">
     <g id="line2d_10">
      <defs>
       <path id="m2bae8031e3" d="M 0 0 
L -3.5 0 
" style="stroke: #c6c8cb; stroke-width: 0.8"/>
      </defs>
      <g>
       <use xlink:href="#m2bae8031e3" x="54" y="384.48" style="fill: #c6c8cb; stroke: #c6c8cb; stroke-width: 0.8"/>
      </g>
     </g>
     <g id="text_11">
      <!-- 0.0 -->
      <g style="fill: #c6c8cb" transform="translate(33.290625 388.040156) scale(0.1 -0.1)">
       <use xlink:href="#DINPro-Bold-30"/>
       <use xlink:href="#DINPro-Bold-2e" x="54.299988"/>
       <use xlink:href="#DINPro-Bold-30" x="82.799973"/>
      </g>
     </g>
    </g>
    <g id="ytick_2">
     <g id="line2d_11">
      <g>
       <use xlink:href="#m2bae8031e3" x="54" y="342.9" style="fill: #c6c8cb; stroke: #c6c8cb; stroke-width: 0.8"/>
      </g>
     </g>
     <g id="text_12">
      <!-- 0.1 -->
      <g style="fill: #c6c8cb" transform="translate(33.290625 346.460156) scale(0.1 -0.1)">
       <use xlink:href="#DINPro-Bold-30"/>
       <use xlink:href="#DINPro-Bold-2e" x="54.299988"/>
       <use xlink:href="#DINPro-Bold-31" x="82.799973"/>
      </g>
     </g>
    </g>
    <g id="ytick_3">
     <g id="line2d_12">
      <g>
       <use xlink:href="#m2bae8031e3" x="54" y="301.32" style="fill: #c6c8cb; stroke: #c6c8cb; stroke-width: 0.8"/>
      </g>
     </g>
     <g id="text_13">
      <!-- 0.2 -->
      <g style="fill: #c6c8cb" transform="translate(33.290625 304.880156) scale(0.1 -0.1)">
       <use xlink:href="#DINPro-Bold-30"/>
       <use xlink:href="#DINPro-Bold-2e" x="54.299988"/>
       <use xlink:href="#DINPro-Bold-32" x="82.799973"/>
      </g>
     </g>
    </g>
    <g id="ytick_4">
     <g id="line2d_13">
      <g>
       <use xlink:href="#m2bae8031e3" x="54" y="259.74" style="fill: #c6c8cb; stroke: #c6c8cb; stroke-width: 0.8"/>
      </g>
     </g>
     <g id="text_14">
      <!-- 0.3 -->
      <g style="fill: #c6c8cb" transform="translate(33.290625 263.300156) scale(0.1 -0.1)">
       <use xlink:href="#DINPro-Bold-30"/>
       <use xlink:href="#DINPro-Bold-2e" x="54.299988"/>
       <use xlink:href="#DINPro-Bold-33" x="82.799973"/>
      </g>
     </g>
    </g>
    <g id="ytick_5">
     <g id="line2d_14">
      <g>
       <use xlink:href="#m2bae8031e3" x="54" y="218.16" style="fill: #c6c8cb; stroke: #c6c8cb; stroke-width: 0.8"/>
      </g>
     </g>
     <g id="text_15">
      <!-- 0.4 -->
      <g style="fill: #c6c8cb" transform="translate(33.290625 221.720156) scale(0.1 -0.1)">
       <use xlink:href="#DINPro-Bold-30"/>
       <use xlink:href="#DINPro-Bold-2e" x="54.299988"/>
       <use xlink:href="#DINPro-Bold-34" x="82.799973"/>
      </g>
     </g>
    </g>
    <g id="ytick_6">
     <g id="line2d_15">
      <g>
       <use xlink:href="#m2bae8031e3" x="54" y="176.58" style="fill: #c6c8cb; stroke: #c6c8cb; stroke-width: 0.8"/>
      </g>
     </g>
     <g id="text_16">
      <!-- 0.5 -->
      <g style="fill: #c6c8cb" transform="translate(33.290625 180.140156) scale(0.1 -0.1)">
       <use xlink:href="#DINPro-Bold-30"/>
       <use xlink:href="#DINPro-Bold-2e" x="54.299988"/>
       <use xlink:href="#DINPro-Bold-35" x="82.799973"/>
      </g>
     </g>
    </g>
    <g id="ytick_7">
     <g id="line2d_16">
      <g>
       <use xlink:href="#m2bae8031e3" x="54" y="135" style="fill: #c6c8cb; stroke: #c6c8cb; stroke-width: 0.8"/>
      </g>
     </g>
     <g id="text_17">
      <!-- 0.6 -->
      <g style="fill: #c6c8cb" transform="translate(33.290625 138.560156) scale(0.1 -0.1)">
       <defs>
        <path id="DINPro-Bold-36" d="M 3149 1382 
C 3149 2227 2566 2733 1952 2733 
C 1843 2733 1722 2720 1613 2675 
L 2560 4557 
L 1651 4557 
L 691 2586 
C 486 2170 307 1786 307 1370 
C 307 467 922 -38 1728 -38 
C 2534 -38 3149 486 3149 1382 
z
M 2317 1376 
C 2317 954 2067 710 1728 710 
C 1389 710 1139 954 1139 1376 
C 1139 1798 1389 2042 1728 2042 
C 2080 2042 2317 1779 2317 1376 
z
" transform="scale(0.015625)"/>
       </defs>
       <use xlink:href="#DINPro-Bold-30"/>
       <use xlink:href="#DINPro-Bold-2e" x="54.299988"/>
       <use xlink:href="#DINPro-Bold-36" x="82.799973"/>
      </g>
     </g>
    </g>
    <g id="ytick_8">
     <g id="line2d_17">
      <g>
       <use xlink:href="#m2bae8031e3" x="54" y="93.42" style="fill: #c6c8cb; stroke: #c6c8cb; stroke-width: 0.8"/>
      </g>
     </g>
     <g id="text_18">
      <!-- 0.7 -->
      <g style="fill: #c6c8cb" transform="translate(33.290625 96.980156) scale(0.1 -0.1)">
       <defs>
        <path id="DINPro-Bold-37" d="M 3219 3808 
L 3219 4557 
L 320 4557 
L 320 3091 
L 1114 3091 
L 1114 3808 
L 2317 3808 
L 838 0 
L 1741 0 
L 3219 3808 
z
" transform="scale(0.015625)"/>
       </defs>
       <use xlink:href="#DINPro-Bold-30"/>
       <use xlink:href="#DINPro-Bold-2e" x="54.299988"/>
       <use xlink:href="#DINPro-Bold-37" x="82.799973"/>
      </g>
     </g>
    </g>
    <g id="ytick_9">
     <g id="line2d_18">
      <g>
       <use xlink:href="#m2bae8031e3" x="54" y="51.84" style="fill: #c6c8cb; stroke: #c6c8cb; stroke-width: 0.8"/>
      </g>
     </g>
     <g id="text_19">
      <!-- 0.8 -->
      <g style="fill: #c6c8cb" transform="translate(33.290625 55.400156) scale(0.1 -0.1)">
       <defs>
        <path id="DINPro-Bold-38" d="M 3200 1325 
C 3200 1882 2874 2182 2624 2349 
C 2854 2509 3136 2810 3136 3296 
C 3136 4102 2502 4595 1741 4595 
C 979 4595 339 4102 339 3296 
C 339 2810 621 2509 851 2349 
C 602 2182 282 1882 282 1325 
C 282 442 934 -38 1741 -38 
C 2547 -38 3200 442 3200 1325 
z
M 2368 1338 
C 2368 986 2093 710 1741 710 
C 1389 710 1114 986 1114 1338 
C 1114 1690 1389 1971 1741 1971 
C 2093 1971 2368 1690 2368 1338 
z
M 2304 3270 
C 2304 2938 2067 2694 1741 2694 
C 1414 2694 1171 2938 1171 3270 
C 1171 3597 1414 3846 1741 3846 
C 2067 3846 2304 3597 2304 3270 
z
" transform="scale(0.015625)"/>
       </defs>
       <use xlink:href="#DINPro-Bold-30"/>
       <use xlink:href="#DINPro-Bold-2e" x="54.299988"/>
       <use xlink:href="#DINPro-Bold-38" x="82.799973"/>
      </g>
     </g>
    </g>
    <g id="text_20">
     <!-- q -->
     <g style="fill: #c6c8cb" transform="translate(20.485937 216.250625) scale(0.1 -0.1)">
      <use xlink:href="#DINPro-Bold-71"/>
     </g>
    </g>
   </g>
   <g id="line2d_19">
    <path d="M 69.218182 295.561929 
L 79.272236 292.937675 
L 88.716953 290.248214 
L 97.552334 287.505004 
L 105.778378 284.723085 
L 113.395086 281.92159 
L 120.707125 278.997324 
L 127.409828 276.084662 
L 133.807862 273.066657 
L 139.901229 269.944726 
L 145.689926 266.721977 
L 151.173956 263.403602 
L 156.353317 259.997327 
L 161.22801 256.513919 
L 165.798034 252.967726 
L 170.063391 249.37723 
L 174.024079 245.765591 
L 177.984767 241.847906 
L 181.640786 237.920479 
L 185.296806 233.649666 
L 188.648157 229.387916 
L 191.999509 224.74322 
L 195.046192 220.137381 
L 198.092875 215.10868 
L 200.834889 210.164653 
L 203.576904 204.760755 
L 206.318919 198.820964 
L 208.756265 193.015107 
L 211.193612 186.628128 
L 213.630958 179.55613 
L 215.763636 172.703376 
L 217.896314 165.113711 
L 220.028993 156.644829 
L 221.857002 148.54797 
L 223.685012 139.52159 
L 225.513022 129.373046 
L 227.341032 117.848725 
L 228.864373 106.9511 
L 230.387715 94.59784 
L 231.911057 80.433067 
L 233.434398 63.965828 
L 234.653071 48.673766 
L 235.871744 30.960893 
L 237.090418 10.112724 
L 237.659926 -1 
L 237.659926 -1 
" clip-path="url(#p16b80af2e0)" style="fill: none; stroke: #eba62a; stroke-width: 1.5; stroke-linecap: square"/>
   </g>
   <g id="line2d_20">
    <path d="M 69.218182 384.48 
L 70.436855 384.373128 
L 71.655528 384.052766 
L 72.874201 383.519673 
L 74.092875 382.775097 
L 75.616216 381.549663 
L 77.139558 380.000935 
L 78.662899 378.13442 
L 80.490909 375.484438 
L 82.318919 372.399595 
L 84.146929 368.895098 
L 86.279607 364.298936 
L 88.412285 359.184742 
L 90.849631 352.747709 
L 93.591646 344.814281 
L 96.638329 335.234994 
L 99.989681 323.90376 
L 103.950369 309.65593 
L 108.825061 291.234117 
L 125.581818 227.150121 
L 129.542506 213.21693 
L 133.198526 201.149345 
L 136.549877 190.871891 
L 139.59656 182.254613 
L 142.338575 175.136544 
L 145.08059 168.656123 
L 147.517936 163.452116 
L 149.955283 158.786413 
L 152.087961 155.153527 
L 154.220639 151.944971 
L 156.353317 149.163034 
L 158.181327 147.118322 
L 160.009337 145.386291 
L 161.837346 143.964968 
L 163.665356 142.851424 
L 165.188698 142.155843 
L 166.712039 141.668684 
L 168.235381 141.386889 
L 169.758722 141.307035 
L 171.282064 141.425354 
L 172.805405 141.737754 
L 174.633415 142.362622 
L 176.461425 143.252523 
L 178.289435 144.398826 
L 180.117445 145.792439 
L 182.250123 147.718189 
L 184.382801 149.951899 
L 186.820147 152.860935 
L 189.257494 156.126005 
L 191.999509 160.19301 
L 195.046192 165.157708 
L 198.397543 171.102132 
L 202.053563 178.087457 
L 206.014251 186.147029 
L 210.888943 196.615997 
L 216.98231 210.286026 
L 240.746437 264.219336 
L 246.230467 275.813113 
L 251.409828 286.236837 
L 255.979853 294.959477 
L 260.549877 303.205393 
L 264.815233 310.453956 
L 269.08059 317.261188 
L 273.041278 323.184597 
L 277.001966 328.727129 
L 280.962654 333.894247 
L 284.923342 338.694348 
L 288.884029 343.138281 
L 292.844717 347.238892 
L 296.805405 351.010604 
L 300.766093 354.469031 
L 304.726781 357.630635 
L 308.687469 360.512413 
L 312.648157 363.131627 
L 316.913514 365.678511 
L 321.17887 367.962296 
L 325.444226 370.003867 
L 330.014251 371.945431 
L 334.888943 373.762315 
L 339.763636 375.343601 
L 344.942998 376.794101 
L 350.427027 378.102859 
L 356.520393 379.319589 
L 362.918428 380.367861 
L 369.925799 381.290956 
L 373.581818 381.693389 
L 373.581818 381.693389 
" clip-path="url(#p16b80af2e0)" style="fill: none; stroke: #eb892a; stroke-width: 1.5; stroke-linecap: square"/>
   </g>
   <g id="patch_3">
    <path d="M 54 384.48 
L 54 51.84 
" style="fill: none; stroke: #c6c8cb; stroke-width: 0.8; stroke-linejoin: miter; stroke-linecap: square"/>
   </g>
   <g id="patch_4">
    <path d="M 388.8 384.48 
L 388.8 51.84 
" style="fill: none; stroke: #c6c8cb; stroke-width: 0.8; stroke-linejoin: miter; stroke-linecap: square"/>
   </g>
   <g id="patch_5">
    <path d="M 54 384.48 
L 388.8 384.48 
" style="fill: none; stroke: #c6c8cb; stroke-width: 0.8; stroke-linejoin: miter; stroke-linecap: square"/>
   </g>
   <g id="patch_6">
    <path d="M 54 51.84 
L 388.8 51.84 
" style="fill: none; stroke: #c6c8cb; stroke-width: 0.8; stroke-linejoin: miter; stroke-linecap: square"/>
   </g>
   <g id="text_21">
    <!-- The Ground State n=1 -->
    <g style="fill: #c6c8cb" transform="translate(172.590625 48.5136) scale(0.1 -0.1)">
     <defs>
      <path id="DINPro-Bold-54" d="M 3462 3763 
L 3462 4557 
L 192 4557 
L 192 3763 
L 1382 3763 
L 1382 0 
L 2272 0 
L 2272 3763 
L 3462 3763 
z
" transform="scale(0.015625)"/>
      <path id="DINPro-Bold-68" d="M 3213 0 
L 3213 2157 
C 3213 2861 2829 3373 2099 3373 
C 1805 3373 1523 3258 1299 3027 
L 1299 4557 
L 467 4557 
L 467 0 
L 1299 0 
L 1299 2035 
C 1299 2470 1574 2624 1837 2624 
C 2099 2624 2381 2477 2381 2035 
L 2381 0 
L 3213 0 
z
" transform="scale(0.015625)"/>
      <path id="DINPro-Bold-65" d="M 3206 1408 
L 3206 1779 
C 3206 2694 2682 3373 1754 3373 
C 890 3373 301 2758 301 1670 
C 301 320 1056 -38 1843 -38 
C 2445 -38 2771 147 3110 486 
L 2605 979 
C 2394 768 2214 666 1850 666 
C 1382 666 1120 979 1120 1408 
L 3206 1408 
z
M 2387 1978 
L 1120 1978 
C 1126 2125 1146 2214 1197 2336 
C 1286 2534 1472 2682 1754 2682 
C 2035 2682 2221 2534 2310 2336 
C 2362 2214 2381 2125 2387 1978 
z
" transform="scale(0.015625)"/>
      <path id="DINPro-Bold-20" transform="scale(0.015625)"/>
      <path id="DINPro-Bold-47" d="M 3776 1869 
L 3776 2534 
L 2054 2534 
L 2054 1792 
L 2893 1792 
L 2893 1619 
C 2893 1370 2822 1165 2688 1011 
C 2528 838 2317 755 2054 755 
C 1811 755 1619 832 1485 992 
C 1306 1203 1267 1382 1267 2278 
C 1267 3181 1318 3347 1485 3558 
C 1626 3718 1818 3802 2054 3802 
C 2496 3802 2765 3578 2874 3136 
L 3770 3136 
C 3648 3930 3091 4595 2054 4595 
C 1568 4595 1158 4429 826 4096 
C 627 3898 506 3674 454 3411 
C 403 3155 378 2778 378 2278 
C 378 1779 403 1402 454 1146 
C 506 890 627 659 826 461 
C 1158 128 1568 -38 2054 -38 
C 2566 -38 2989 122 3341 480 
C 3654 813 3776 1203 3776 1869 
z
" transform="scale(0.015625)"/>
      <path id="DINPro-Bold-72" d="M 2906 3059 
C 2675 3290 2445 3373 2118 3373 
C 1760 3373 1440 3206 1280 3014 
L 1280 3334 
L 467 3334 
L 467 0 
L 1299 0 
L 1299 2010 
C 1299 2432 1581 2624 1837 2624 
C 2042 2624 2150 2554 2278 2426 
L 2906 3059 
z
" transform="scale(0.015625)"/>
      <path id="DINPro-Bold-6f" d="M 3149 1670 
C 3149 2272 3072 2650 2771 2963 
C 2566 3181 2227 3373 1734 3373 
C 1242 3373 909 3181 704 2963 
C 403 2650 326 2272 326 1670 
C 326 1062 403 685 704 371 
C 909 154 1242 -38 1734 -38 
C 2227 -38 2566 154 2771 371 
C 3072 685 3149 1062 3149 1670 
z
M 2317 1670 
C 2317 1325 2298 1030 2125 858 
C 2029 762 1901 710 1734 710 
C 1568 710 1446 762 1350 858 
C 1178 1030 1158 1325 1158 1670 
C 1158 2016 1178 2304 1350 2477 
C 1446 2573 1568 2624 1734 2624 
C 1901 2624 2029 2573 2125 2477 
C 2298 2304 2317 2016 2317 1670 
z
" transform="scale(0.015625)"/>
      <path id="DINPro-Bold-75" d="M 3200 0 
L 3200 3334 
L 2368 3334 
L 2368 1318 
C 2368 864 2074 710 1811 710 
C 1549 710 1261 864 1261 1318 
L 1261 3334 
L 429 3334 
L 429 1203 
C 429 838 499 525 768 256 
C 954 70 1222 -38 1555 -38 
C 1862 -38 2170 77 2387 307 
L 2387 0 
L 3200 0 
z
" transform="scale(0.015625)"/>
      <path id="DINPro-Bold-6e" d="M 3238 0 
L 3238 2131 
C 3238 2496 3168 2810 2899 3078 
C 2714 3264 2445 3373 2112 3373 
C 1805 3373 1498 3258 1280 3027 
L 1280 3334 
L 467 3334 
L 467 0 
L 1299 0 
L 1299 2016 
C 1299 2470 1594 2624 1856 2624 
C 2118 2624 2406 2470 2406 2016 
L 2406 0 
L 3238 0 
z
" transform="scale(0.015625)"/>
      <path id="DINPro-Bold-64" d="M 3123 0 
L 3123 4557 
L 2291 4557 
L 2291 3040 
C 2074 3283 1818 3373 1478 3373 
C 1152 3373 851 3258 666 3072 
C 333 2739 326 2170 326 1670 
C 326 1171 333 595 666 262 
C 851 77 1158 -38 1485 -38 
C 1837 -38 2080 58 2310 314 
L 2310 0 
L 3123 0 
z
M 2291 1670 
C 2291 1126 2221 710 1722 710 
C 1222 710 1158 1126 1158 1670 
C 1158 2214 1222 2624 1722 2624 
C 2221 2624 2291 2214 2291 1670 
z
" transform="scale(0.015625)"/>
      <path id="DINPro-Bold-53" d="M 3475 1344 
C 3475 1747 3366 2080 3123 2310 
C 2931 2490 2669 2605 2253 2662 
L 1715 2739 
C 1530 2765 1382 2835 1293 2918 
C 1197 3008 1158 3130 1158 3245 
C 1158 3558 1389 3821 1862 3821 
C 2163 3821 2509 3782 2797 3507 
L 3360 4064 
C 2970 4442 2515 4595 1888 4595 
C 902 4595 301 4026 301 3213 
C 301 2829 410 2534 627 2317 
C 832 2118 1120 1997 1510 1939 
L 2061 1862 
C 2272 1830 2374 1786 2464 1702 
C 2560 1613 2605 1478 2605 1318 
C 2605 954 2323 755 1798 755 
C 1376 755 986 851 698 1139 
L 122 563 
C 570 109 1094 -38 1786 -38 
C 2739 -38 3475 461 3475 1344 
z
" transform="scale(0.015625)"/>
      <path id="DINPro-Bold-74" d="M 1965 0 
L 1965 704 
L 1664 704 
C 1466 704 1376 813 1376 1005 
L 1376 2605 
L 1965 2605 
L 1965 3238 
L 1376 3238 
L 1376 4224 
L 544 4224 
L 544 3238 
L 192 3238 
L 192 2605 
L 544 2605 
L 544 954 
C 544 480 832 0 1510 0 
L 1965 0 
z
" transform="scale(0.015625)"/>
      <path id="DINPro-Bold-61" d="M 2989 0 
L 2989 2195 
C 2989 2976 2502 3373 1568 3373 
C 1011 3373 691 3270 365 2912 
L 896 2394 
C 1069 2592 1216 2669 1536 2669 
C 1978 2669 2157 2509 2157 2144 
L 2157 1978 
L 1370 1978 
C 595 1978 230 1542 230 1011 
C 230 717 326 448 506 262 
C 704 64 979 -32 1357 -32 
C 1741 -32 1952 64 2176 288 
L 2176 0 
L 2989 0 
z
M 2157 1229 
C 2157 1024 2125 890 2035 806 
C 1888 666 1741 646 1510 646 
C 1184 646 1030 800 1030 1030 
C 1030 1267 1197 1408 1498 1408 
L 2157 1408 
L 2157 1229 
z
" transform="scale(0.015625)"/>
      <path id="DINPro-Bold-3d" d="M 3155 2131 
L 3155 2912 
L 320 2912 
L 320 2131 
L 3155 2131 
z
M 3155 742 
L 3155 1523 
L 320 1523 
L 320 742 
L 3155 742 
z
" transform="scale(0.015625)"/>
     </defs>
     <use xlink:href="#DINPro-Bold-54"/>
     <use xlink:href="#DINPro-Bold-68" x="57.099991"/>
     <use xlink:href="#DINPro-Bold-65" x="113.999985"/>
     <use xlink:href="#DINPro-Bold-20" x="168.799973"/>
     <use xlink:href="#DINPro-Bold-47" x="191.999969"/>
     <use xlink:href="#DINPro-Bold-72" x="255.699966"/>
     <use xlink:href="#DINPro-Bold-6f" x="301.199951"/>
     <use xlink:href="#DINPro-Bold-75" x="355.499939"/>
     <use xlink:href="#DINPro-Bold-6e" x="412.799927"/>
     <use xlink:href="#DINPro-Bold-64" x="470.099915"/>
     <use xlink:href="#DINPro-Bold-20" x="526.199905"/>
     <use xlink:href="#DINPro-Bold-53" x="549.399902"/>
     <use xlink:href="#DINPro-Bold-74" x="608.499893"/>
     <use xlink:href="#DINPro-Bold-61" x="643.69989"/>
     <use xlink:href="#DINPro-Bold-74" x="697.099884"/>
     <use xlink:href="#DINPro-Bold-65" x="732.299881"/>
     <use xlink:href="#DINPro-Bold-20" x="787.099869"/>
     <use xlink:href="#DINPro-Bold-6e" x="810.299866"/>
     <use xlink:href="#DINPro-Bold-3d" x="867.599854"/>
     <use xlink:href="#DINPro-Bold-31" x="921.899841"/>
    </g>
   </g>
   <g id="text_22">
    <!-- Classical -->
    <g style="fill: #eba62a" transform="translate(240.422727 62.761469) scale(0.1 -0.1)">
     <defs>
      <path id="DINPro-Bold-43" d="M 3731 1402 
L 2829 1402 
C 2733 1011 2490 755 2061 755 
C 1818 755 1626 832 1491 992 
C 1306 1190 1267 1395 1267 2278 
C 1267 3162 1306 3366 1491 3565 
C 1626 3725 1818 3802 2061 3802 
C 2490 3802 2733 3546 2829 3155 
L 3731 3155 
C 3578 4083 2931 4595 2054 4595 
C 1568 4595 1158 4429 826 4096 
C 627 3898 506 3674 454 3411 
C 403 3155 378 2778 378 2278 
C 378 1779 403 1402 454 1146 
C 506 890 627 659 826 461 
C 1158 128 1568 -38 2054 -38 
C 2925 -38 3578 474 3731 1402 
z
" transform="scale(0.015625)"/>
      <path id="DINPro-Bold-6c" d="M 1882 0 
L 1882 704 
L 1562 704 
C 1350 704 1267 806 1267 1005 
L 1267 4557 
L 435 4557 
L 435 954 
C 435 480 723 0 1408 0 
L 1882 0 
z
" transform="scale(0.015625)"/>
      <path id="DINPro-Bold-73" d="M 2976 1050 
C 2976 1613 2643 1965 1984 2029 
L 1459 2080 
C 1165 2106 1114 2246 1114 2368 
C 1114 2534 1254 2688 1587 2688 
C 1875 2688 2170 2637 2362 2464 
L 2874 2982 
C 2554 3283 2118 3373 1600 3373 
C 922 3373 314 3002 314 2310 
C 314 1696 685 1434 1286 1376 
L 1811 1325 
C 2074 1299 2163 1184 2163 1018 
C 2163 768 1862 672 1574 672 
C 1318 672 960 710 685 986 
L 141 442 
C 563 19 1037 -38 1562 -38 
C 2349 -38 2976 314 2976 1050 
z
" transform="scale(0.015625)"/>
      <path id="DINPro-Bold-69" d="M 1299 0 
L 1299 3334 
L 467 3334 
L 467 0 
L 1299 0 
z
M 1306 3904 
L 1306 4582 
L 454 4582 
L 454 3904 
L 1306 3904 
z
" transform="scale(0.015625)"/>
      <path id="DINPro-Bold-63" d="M 2893 416 
L 2330 973 
C 2157 787 2010 710 1792 710 
C 1594 710 1440 781 1318 928 
C 1190 1088 1133 1318 1133 1670 
C 1133 2022 1190 2246 1318 2406 
C 1440 2554 1594 2624 1792 2624 
C 2010 2624 2157 2547 2330 2362 
L 2893 2925 
C 2598 3232 2253 3373 1792 3373 
C 1126 3373 301 3021 301 1670 
C 301 320 1126 -38 1792 -38 
C 2253 -38 2598 109 2893 416 
z
" transform="scale(0.015625)"/>
     </defs>
     <use xlink:href="#DINPro-Bold-43"/>
     <use xlink:href="#DINPro-Bold-6c" x="61.999985"/>
     <use xlink:href="#DINPro-Bold-61" x="94.499969"/>
     <use xlink:href="#DINPro-Bold-73" x="147.899963"/>
     <use xlink:href="#DINPro-Bold-73" x="197.999954"/>
     <use xlink:href="#DINPro-Bold-69" x="248.099945"/>
     <use xlink:href="#DINPro-Bold-63" x="275.59993"/>
     <use xlink:href="#DINPro-Bold-61" x="323.599915"/>
     <use xlink:href="#DINPro-Bold-6c" x="376.999908"/>
    </g>
   </g>
   <g id="text_23">
    <!-- Quantum -->
    <g style="fill: #eb892a" transform="translate(335.536364 367.666858) scale(0.1 -0.1)">
     <defs>
      <path id="DINPro-Bold-51" d="M 3853 275 
L 3462 666 
C 3750 1088 3744 1594 3744 2278 
C 3744 3066 3750 3635 3290 4096 
C 2970 4416 2579 4595 2061 4595 
C 1542 4595 1146 4416 826 4096 
C 365 3635 378 3066 378 2278 
C 378 1491 365 922 826 461 
C 1146 141 1542 -38 2061 -38 
C 2419 -38 2726 45 2982 211 
L 3386 -192 
L 3853 275 
z
M 2854 2278 
C 2854 1818 2842 1555 2771 1357 
L 2432 1696 
L 1958 1229 
L 2355 838 
C 2272 781 2170 755 2061 755 
C 1818 755 1613 851 1485 998 
C 1312 1190 1267 1402 1267 2278 
C 1267 3155 1312 3366 1485 3558 
C 1613 3706 1818 3802 2061 3802 
C 2304 3802 2502 3706 2630 3558 
C 2803 3366 2854 3155 2854 2278 
z
" transform="scale(0.015625)"/>
      <path id="DINPro-Bold-6d" d="M 5178 0 
L 5178 2131 
C 5178 2496 5082 2810 4813 3078 
C 4627 3264 4326 3373 3994 3373 
C 3578 3373 3277 3245 2995 2950 
C 2784 3238 2483 3373 2112 3373 
C 1805 3373 1498 3251 1280 3027 
L 1280 3334 
L 467 3334 
L 467 0 
L 1299 0 
L 1299 2016 
C 1299 2470 1594 2624 1856 2624 
C 2118 2624 2406 2470 2406 2016 
L 2406 0 
L 3238 0 
L 3238 2035 
C 3238 2470 3539 2624 3795 2624 
C 4058 2624 4346 2470 4346 2016 
L 4346 0 
L 5178 0 
z
" transform="scale(0.015625)"/>
     </defs>
     <use xlink:href="#DINPro-Bold-51"/>
     <use xlink:href="#DINPro-Bold-75" x="64.299988"/>
     <use xlink:href="#DINPro-Bold-61" x="121.599976"/>
     <use xlink:href="#DINPro-Bold-6e" x="174.999969"/>
     <use xlink:href="#DINPro-Bold-74" x="232.299957"/>
     <use xlink:href="#DINPro-Bold-75" x="267.499954"/>
     <use xlink:href="#DINPro-Bold-6d" x="324.799942"/>
    </g>
   </g>
   <g id="text_24">
    <!-- A quantum particle in a gravitational field -->
    <g style="fill: #c6c8cb" transform="translate(108.394688 35.8608) scale(0.12 -0.12)">
     <defs>
      <path id="DINPro-Bold-41" d="M 4051 0 
L 2387 4557 
L 1690 4557 
L 32 0 
L 960 0 
L 1235 806 
L 2854 806 
L 3123 0 
L 4051 0 
z
M 2618 1555 
L 1485 1555 
L 2061 3213 
L 2618 1555 
z
" transform="scale(0.015625)"/>
      <path id="DINPro-Bold-70" d="M 3258 1670 
C 3258 2170 3251 2739 2918 3072 
C 2733 3258 2432 3373 2106 3373 
C 1754 3373 1504 3277 1274 3021 
L 1274 3334 
L 467 3334 
L 467 -1222 
L 1299 -1222 
L 1299 294 
C 1517 51 1766 -38 2106 -38 
C 2432 -38 2733 77 2918 262 
C 3251 595 3258 1171 3258 1670 
z
M 2426 1670 
C 2426 1126 2362 710 1862 710 
C 1363 710 1299 1126 1299 1670 
C 1299 2214 1363 2624 1862 2624 
C 2362 2624 2426 2214 2426 1670 
z
" transform="scale(0.015625)"/>
      <path id="DINPro-Bold-67" d="M 3085 122 
L 3085 3334 
L 2278 3334 
L 2278 3021 
C 2048 3277 1818 3373 1466 3373 
C 1139 3373 851 3264 666 3078 
C 352 2765 326 2342 326 1760 
C 326 1178 352 749 666 435 
C 851 250 1133 141 1459 141 
C 1786 141 2035 230 2253 474 
L 2253 134 
C 2253 -205 2080 -557 1581 -557 
C 1299 -557 1114 -480 928 -301 
L 410 -826 
C 755 -1158 1107 -1261 1619 -1261 
C 2515 -1261 3085 -678 3085 122 
z
M 2253 1760 
C 2253 1318 2195 890 1702 890 
C 1210 890 1158 1318 1158 1760 
C 1158 2202 1210 2624 1702 2624 
C 2195 2624 2253 2202 2253 1760 
z
" transform="scale(0.015625)"/>
      <path id="DINPro-Bold-76" d="M 3130 3334 
L 2253 3334 
L 1581 1274 
L 902 3334 
L 26 3334 
L 1254 0 
L 1907 0 
L 3130 3334 
z
" transform="scale(0.015625)"/>
      <path id="DINPro-Bold-66" d="M 2016 2605 
L 2016 3238 
L 1402 3238 
L 1402 3603 
C 1402 3795 1491 3904 1690 3904 
L 2016 3904 
L 2016 4608 
L 1542 4608 
C 864 4608 570 4128 570 3654 
L 570 3238 
L 224 3238 
L 224 2605 
L 570 2605 
L 570 0 
L 1402 0 
L 1402 2605 
L 2016 2605 
z
" transform="scale(0.015625)"/>
     </defs>
     <use xlink:href="#DINPro-Bold-41"/>
     <use xlink:href="#DINPro-Bold-20" x="63.799988"/>
     <use xlink:href="#DINPro-Bold-71" x="86.999985"/>
     <use xlink:href="#DINPro-Bold-75" x="143.099976"/>
     <use xlink:href="#DINPro-Bold-61" x="200.399963"/>
     <use xlink:href="#DINPro-Bold-6e" x="253.799957"/>
     <use xlink:href="#DINPro-Bold-74" x="311.099945"/>
     <use xlink:href="#DINPro-Bold-75" x="346.299942"/>
     <use xlink:href="#DINPro-Bold-6d" x="403.59993"/>
     <use xlink:href="#DINPro-Bold-20" x="491.199921"/>
     <use xlink:href="#DINPro-Bold-70" x="514.399918"/>
     <use xlink:href="#DINPro-Bold-61" x="570.399902"/>
     <use xlink:href="#DINPro-Bold-72" x="623.799896"/>
     <use xlink:href="#DINPro-Bold-74" x="669.299881"/>
     <use xlink:href="#DINPro-Bold-69" x="704.499878"/>
     <use xlink:href="#DINPro-Bold-63" x="731.999863"/>
     <use xlink:href="#DINPro-Bold-6c" x="779.999847"/>
     <use xlink:href="#DINPro-Bold-65" x="812.499832"/>
     <use xlink:href="#DINPro-Bold-20" x="867.29982"/>
     <use xlink:href="#DINPro-Bold-69" x="890.499817"/>
     <use xlink:href="#DINPro-Bold-6e" x="917.999802"/>
     <use xlink:href="#DINPro-Bold-20" x="975.299789"/>
     <use xlink:href="#DINPro-Bold-61" x="998.499786"/>
     <use xlink:href="#DINPro-Bold-20" x="1051.89978"/>
     <use xlink:href="#DINPro-Bold-67" x="1075.099777"/>
     <use xlink:href="#DINPro-Bold-72" x="1130.599762"/>
     <use xlink:href="#DINPro-Bold-61" x="1176.099747"/>
     <use xlink:href="#DINPro-Bold-76" x="1229.499741"/>
     <use xlink:href="#DINPro-Bold-69" x="1278.799728"/>
     <use xlink:href="#DINPro-Bold-74" x="1306.299713"/>
     <use xlink:href="#DINPro-Bold-61" x="1341.49971"/>
     <use xlink:href="#DINPro-Bold-74" x="1394.899704"/>
     <use xlink:href="#DINPro-Bold-69" x="1430.099701"/>
     <use xlink:href="#DINPro-Bold-6f" x="1457.599686"/>
     <use xlink:href="#DINPro-Bold-6e" x="1511.899673"/>
     <use xlink:href="#DINPro-Bold-61" x="1569.199661"/>
     <use xlink:href="#DINPro-Bold-6c" x="1622.599655"/>
     <use xlink:href="#DINPro-Bold-20" x="1655.09964"/>
     <use xlink:href="#DINPro-Bold-66" x="1678.299637"/>
     <use xlink:href="#DINPro-Bold-69" x="1712.499634"/>
     <use xlink:href="#DINPro-Bold-65" x="1739.999619"/>
     <use xlink:href="#DINPro-Bold-6c" x="1794.799606"/>
     <use xlink:href="#DINPro-Bold-64" x="1827.299591"/>
    </g>
   </g>
  </g>
 </g>
 <defs>
  <clipPath id="p16b80af2e0">
   <rect x="54" y="51.84" width="334.8" height="332.64"/>
  </clipPath>
 </defs>
</svg>
