<?xml version="1.0" encoding="utf-8" standalone="no"?>
<!DOCTYPE svg PUBLIC "-//W3C//DTD SVG 1.1//EN"
  "http://www.w3.org/Graphics/SVG/1.1/DTD/svg11.dtd">
<svg xmlns:xlink="http://www.w3.org/1999/xlink" width="388.14375pt" height="407.657637pt" viewBox="0 0 388.14375 407.657637" xmlns="http://www.w3.org/2000/svg" version="1.1">
 <metadata>
  <rdf:RDF xmlns:dc="http://purl.org/dc/elements/1.1/" xmlns:cc="http://creativecommons.org/ns#" xmlns:rdf="http://www.w3.org/1999/02/22-rdf-syntax-ns#">
   <cc:Work>
    <dc:type rdf:resource="http://purl.org/dc/dcmitype/StillImage"/>
    <dc:date>2023-12-29T12:21:56.455963</dc:date>
    <dc:format>image/svg+xml</dc:format>
    <dc:creator>
     <cc:Agent>
      <dc:title>Matplotlib v3.7.1, https://matplotlib.org/</dc:title>
     </cc:Agent>
    </dc:creator>
   </cc:Work>
  </rdf:RDF>
 </metadata>
 <defs>
  <style type="text/css">*{stroke-linejoin: round; stroke-linecap: butt}</style>
 </defs>
 <g id="figure_1">
  <g id="patch_1">
   <path d="M 0 407.657637 
L 388.14375 407.657637 
L 388.14375 0 
L 0 0 
z
" style="fill: #9f9f9f"/>
  </g>
  <g id="axes_1">
   <g id="patch_2">
    <path d="M 46.14375 364.4592 
L 380.94375 364.4592 
L 380.94375 31.8192 
L 46.14375 31.8192 
z
" style="fill: #9f9f9f"/>
   </g>
   <g id="matplotlib.axis_1">
    <g id="xtick_1">
     <g id="line2d_1">
      <defs>
       <path id="mf8f5d88ee2" d="M 0 0 
L 0 3.5 
" style="stroke: #c6c8cb; stroke-width: 0.8"/>
      </defs>
      <g>
       <use xlink:href="#mf8f5d88ee2" x="46.14375" y="364.4592" style="fill: #c6c8cb; stroke: #c6c8cb; stroke-width: 0.8"/>
      </g>
     </g>
     <g id="text_1">
      <!-- 0 -->
      <g style="fill: #c6c8cb" transform="translate(43.428906 378.579512) scale(0.1 -0.1)">
       <defs>
        <path id="DINPro-Bold-30" d="M 3123 1318 
L 3123 3238 
C 3123 4109 2483 4595 1741 4595 
C 998 4595 352 4109 352 3238 
L 352 1318 
C 352 448 998 -38 1741 -38 
C 2483 -38 3123 448 3123 1318 
z
M 2291 1325 
C 2291 941 2067 710 1741 710 
C 1414 710 1184 941 1184 1325 
L 1184 3226 
C 1184 3610 1414 3846 1741 3846 
C 2067 3846 2291 3610 2291 3226 
L 2291 1325 
z
" transform="scale(0.015625)"/>
       </defs>
       <use xlink:href="#DINPro-Bold-30"/>
      </g>
     </g>
    </g>
    <g id="xtick_2">
     <g id="line2d_2">
      <g>
       <use xlink:href="#mf8f5d88ee2" x="118.926359" y="364.4592" style="fill: #c6c8cb; stroke: #c6c8cb; stroke-width: 0.8"/>
      </g>
     </g>
     <g id="text_2">
      <!-- 5 -->
      <g style="fill: #c6c8cb" transform="translate(116.211515 378.579512) scale(0.1 -0.1)">
       <defs>
        <path id="DINPro-Bold-35" d="M 3162 1536 
C 3162 1965 3110 2394 2752 2752 
C 2566 2938 2278 3059 1901 3059 
C 1594 3059 1338 2944 1216 2829 
L 1216 3808 
L 3059 3808 
L 3059 4557 
L 461 4557 
L 461 1984 
L 1222 1984 
C 1280 2163 1434 2355 1773 2355 
C 2176 2355 2330 2061 2330 1536 
C 2330 1248 2298 1005 2150 858 
C 2048 755 1914 710 1754 710 
C 1408 710 1242 915 1197 1274 
L 365 1274 
C 390 941 454 608 736 326 
C 934 128 1280 -38 1754 -38 
C 2227 -38 2554 128 2758 333 
C 3091 666 3162 1024 3162 1536 
z
" transform="scale(0.015625)"/>
       </defs>
       <use xlink:href="#DINPro-Bold-35"/>
      </g>
     </g>
    </g>
    <g id="xtick_3">
     <g id="line2d_3">
      <g>
       <use xlink:href="#mf8f5d88ee2" x="191.708967" y="364.4592" style="fill: #c6c8cb; stroke: #c6c8cb; stroke-width: 0.8"/>
      </g>
     </g>
     <g id="text_3">
      <!-- 10 -->
      <g style="fill: #c6c8cb" transform="translate(186.27928 378.579512) scale(0.1 -0.1)">
       <defs>
        <path id="DINPro-Bold-31" d="M 2419 0 
L 2419 4557 
L 1587 4557 
L 659 3750 
L 659 2854 
L 1587 3661 
L 1587 0 
L 2419 0 
z
" transform="scale(0.015625)"/>
       </defs>
       <use xlink:href="#DINPro-Bold-31"/>
       <use xlink:href="#DINPro-Bold-30" x="54.299988"/>
      </g>
     </g>
    </g>
    <g id="xtick_4">
     <g id="line2d_4">
      <g>
       <use xlink:href="#mf8f5d88ee2" x="264.491576" y="364.4592" style="fill: #c6c8cb; stroke: #c6c8cb; stroke-width: 0.8"/>
      </g>
     </g>
     <g id="text_4">
      <!-- 15 -->
      <g style="fill: #c6c8cb" transform="translate(259.061889 378.579512) scale(0.1 -0.1)">
       <use xlink:href="#DINPro-Bold-31"/>
       <use xlink:href="#DINPro-Bold-35" x="54.299988"/>
      </g>
     </g>
    </g>
    <g id="xtick_5">
     <g id="line2d_5">
      <g>
       <use xlink:href="#mf8f5d88ee2" x="337.274185" y="364.4592" style="fill: #c6c8cb; stroke: #c6c8cb; stroke-width: 0.8"/>
      </g>
     </g>
     <g id="text_5">
      <!-- 20 -->
      <g style="fill: #c6c8cb" transform="translate(331.844497 378.579512) scale(0.1 -0.1)">
       <defs>
        <path id="DINPro-Bold-32" d="M 3149 0 
L 3149 749 
L 1389 749 
L 2662 2227 
C 2976 2592 3149 2829 3149 3270 
C 3149 4090 2573 4595 1766 4595 
C 986 4595 378 4096 378 3264 
L 1210 3264 
C 1210 3706 1491 3846 1766 3846 
C 2118 3846 2317 3616 2317 3277 
C 2317 3066 2246 2925 2080 2726 
L 378 749 
L 378 0 
L 3149 0 
z
" transform="scale(0.015625)"/>
       </defs>
       <use xlink:href="#DINPro-Bold-32"/>
       <use xlink:href="#DINPro-Bold-30" x="54.299988"/>
      </g>
     </g>
    </g>
    <g id="text_6">
     <!-- P(q) -->
     <g style="fill: #c6c8cb" transform="translate(204.239844 398.548262) scale(0.1 -0.1)">
      <defs>
       <path id="DINPro-Bold-50" d="M 3802 3136 
C 3802 3910 3238 4557 2298 4557 
L 531 4557 
L 531 0 
L 1421 0 
L 1421 1715 
L 2298 1715 
C 3238 1715 3802 2362 3802 3136 
z
M 2912 3136 
C 2912 2765 2656 2515 2253 2515 
L 1421 2515 
L 1421 3763 
L 2253 3763 
C 2656 3763 2912 3507 2912 3136 
z
" transform="scale(0.015625)"/>
       <path id="DINPro-Bold-28" d="M 1798 -45 
C 1645 109 1549 198 1440 384 
C 1376 499 1344 678 1344 922 
L 1344 3635 
C 1344 3878 1376 4058 1440 4173 
C 1549 4358 1645 4448 1798 4602 
L 1242 5158 
C 1030 4947 826 4749 678 4499 
C 531 4243 512 3955 512 3674 
L 512 883 
C 512 602 531 314 678 58 
C 826 -192 1030 -390 1242 -602 
L 1798 -45 
z
" transform="scale(0.015625)"/>
       <path id="DINPro-Bold-71" d="M 3123 -1222 
L 3123 3334 
L 2310 3334 
L 2310 3021 
C 2080 3277 1837 3373 1485 3373 
C 1158 3373 851 3258 666 3072 
C 333 2739 326 2170 326 1670 
C 326 1171 333 595 666 262 
C 851 77 1152 -38 1478 -38 
C 1818 -38 2074 51 2291 294 
L 2291 -1222 
L 3123 -1222 
z
M 2291 1670 
C 2291 1126 2221 710 1722 710 
C 1222 710 1158 1126 1158 1670 
C 1158 2214 1222 2624 1722 2624 
C 2221 2624 2291 2214 2291 1670 
z
" transform="scale(0.015625)"/>
       <path id="DINPro-Bold-29" d="M 1638 883 
L 1638 3674 
C 1638 3955 1619 4243 1472 4499 
C 1325 4749 1120 4947 909 5158 
L 346 4595 
C 499 4442 595 4358 704 4173 
C 768 4058 800 3878 800 3635 
L 800 922 
C 800 678 768 499 704 384 
C 595 198 499 115 346 -38 
L 909 -602 
C 1120 -390 1325 -192 1472 58 
C 1619 314 1638 602 1638 883 
z
" transform="scale(0.015625)"/>
      </defs>
      <use xlink:href="#DINPro-Bold-50"/>
      <use xlink:href="#DINPro-Bold-28" x="62.799988"/>
      <use xlink:href="#DINPro-Bold-71" x="96.399979"/>
      <use xlink:href="#DINPro-Bold-29" x="152.499969"/>
     </g>
    </g>
   </g>
   <g id="matplotlib.axis_2">
    <g id="ytick_1">
     <g id="line2d_6">
      <defs>
       <path id="m199626600f" d="M 0 0 
L -3.5 0 
" style="stroke: #c6c8cb; stroke-width: 0.8"/>
      </defs>
      <g>
       <use xlink:href="#m199626600f" x="46.14375" y="364.4592" style="fill: #c6c8cb; stroke: #c6c8cb; stroke-width: 0.8"/>
      </g>
     </g>
     <g id="text_7">
      <!-- 0.00 -->
      <g style="fill: #c6c8cb" transform="translate(20.004688 368.019356) scale(0.1 -0.1)">
       <defs>
        <path id="DINPro-Bold-2e" d="M 1389 0 
L 1389 947 
L 435 947 
L 435 0 
L 1389 0 
z
" transform="scale(0.015625)"/>
       </defs>
       <use xlink:href="#DINPro-Bold-30"/>
       <use xlink:href="#DINPro-Bold-2e" x="54.299988"/>
       <use xlink:href="#DINPro-Bold-30" x="82.799973"/>
       <use xlink:href="#DINPro-Bold-30" x="137.09996"/>
      </g>
     </g>
    </g>
    <g id="ytick_2">
     <g id="line2d_7">
      <g>
       <use xlink:href="#m199626600f" x="46.14375" y="309.0192" style="fill: #c6c8cb; stroke: #c6c8cb; stroke-width: 0.8"/>
      </g>
     </g>
     <g id="text_8">
      <!-- 0.05 -->
      <g style="fill: #c6c8cb" transform="translate(20.004688 312.579356) scale(0.1 -0.1)">
       <use xlink:href="#DINPro-Bold-30"/>
       <use xlink:href="#DINPro-Bold-2e" x="54.299988"/>
       <use xlink:href="#DINPro-Bold-30" x="82.799973"/>
       <use xlink:href="#DINPro-Bold-35" x="137.09996"/>
      </g>
     </g>
    </g>
    <g id="ytick_3">
     <g id="line2d_8">
      <g>
       <use xlink:href="#m199626600f" x="46.14375" y="253.5792" style="fill: #c6c8cb; stroke: #c6c8cb; stroke-width: 0.8"/>
      </g>
     </g>
     <g id="text_9">
      <!-- 0.10 -->
      <g style="fill: #c6c8cb" transform="translate(20.004688 257.139356) scale(0.1 -0.1)">
       <use xlink:href="#DINPro-Bold-30"/>
       <use xlink:href="#DINPro-Bold-2e" x="54.299988"/>
       <use xlink:href="#DINPro-Bold-31" x="82.799973"/>
       <use xlink:href="#DINPro-Bold-30" x="137.09996"/>
      </g>
     </g>
    </g>
    <g id="ytick_4">
     <g id="line2d_9">
      <g>
       <use xlink:href="#m199626600f" x="46.14375" y="198.1392" style="fill: #c6c8cb; stroke: #c6c8cb; stroke-width: 0.8"/>
      </g>
     </g>
     <g id="text_10">
      <!-- 0.15 -->
      <g style="fill: #c6c8cb" transform="translate(20.004688 201.699356) scale(0.1 -0.1)">
       <use xlink:href="#DINPro-Bold-30"/>
       <use xlink:href="#DINPro-Bold-2e" x="54.299988"/>
       <use xlink:href="#DINPro-Bold-31" x="82.799973"/>
       <use xlink:href="#DINPro-Bold-35" x="137.09996"/>
      </g>
     </g>
    </g>
    <g id="ytick_5">
     <g id="line2d_10">
      <g>
       <use xlink:href="#m199626600f" x="46.14375" y="142.6992" style="fill: #c6c8cb; stroke: #c6c8cb; stroke-width: 0.8"/>
      </g>
     </g>
     <g id="text_11">
      <!-- 0.20 -->
      <g style="fill: #c6c8cb" transform="translate(20.004688 146.259356) scale(0.1 -0.1)">
       <use xlink:href="#DINPro-Bold-30"/>
       <use xlink:href="#DINPro-Bold-2e" x="54.299988"/>
       <use xlink:href="#DINPro-Bold-32" x="82.799973"/>
       <use xlink:href="#DINPro-Bold-30" x="137.09996"/>
      </g>
     </g>
    </g>
    <g id="ytick_6">
     <g id="line2d_11">
      <g>
       <use xlink:href="#m199626600f" x="46.14375" y="87.2592" style="fill: #c6c8cb; stroke: #c6c8cb; stroke-width: 0.8"/>
      </g>
     </g>
     <g id="text_12">
      <!-- 0.25 -->
      <g style="fill: #c6c8cb" transform="translate(20.004688 90.819356) scale(0.1 -0.1)">
       <use xlink:href="#DINPro-Bold-30"/>
       <use xlink:href="#DINPro-Bold-2e" x="54.299988"/>
       <use xlink:href="#DINPro-Bold-32" x="82.799973"/>
       <use xlink:href="#DINPro-Bold-35" x="137.09996"/>
      </g>
     </g>
    </g>
    <g id="ytick_7">
     <g id="line2d_12">
      <g>
       <use xlink:href="#m199626600f" x="46.14375" y="31.8192" style="fill: #c6c8cb; stroke: #c6c8cb; stroke-width: 0.8"/>
      </g>
     </g>
     <g id="text_13">
      <!-- 0.30 -->
      <g style="fill: #c6c8cb" transform="translate(20.004688 35.379356) scale(0.1 -0.1)">
       <defs>
        <path id="DINPro-Bold-33" d="M 3168 1318 
C 3168 1869 2906 2182 2579 2355 
C 2880 2515 3104 2797 3104 3290 
C 3104 4058 2522 4595 1715 4595 
C 947 4595 339 4109 320 3296 
L 1152 3296 
C 1171 3642 1402 3846 1715 3846 
C 2016 3846 2272 3648 2272 3264 
C 2272 2944 2099 2694 1696 2694 
L 1574 2694 
L 1574 1971 
L 1696 1971 
C 2106 1971 2336 1722 2336 1344 
C 2336 934 2080 710 1722 710 
C 1395 710 1114 896 1101 1306 
L 269 1306 
C 282 352 979 -38 1722 -38 
C 2502 -38 3168 410 3168 1318 
z
" transform="scale(0.015625)"/>
       </defs>
       <use xlink:href="#DINPro-Bold-30"/>
       <use xlink:href="#DINPro-Bold-2e" x="54.299988"/>
       <use xlink:href="#DINPro-Bold-33" x="82.799973"/>
       <use xlink:href="#DINPro-Bold-30" x="137.09996"/>
      </g>
     </g>
    </g>
    <g id="text_14">
     <!-- q -->
     <g style="fill: #c6c8cb" transform="translate(7.2 196.229825) scale(0.1 -0.1)">
      <use xlink:href="#DINPro-Bold-71"/>
     </g>
    </g>
   </g>
   <g id="line2d_13">
    <path d="M 46.14375 333.068532 
L 70.040342 331.499347 
L 91.314138 329.884526 
L 110.256558 328.227312 
L 127.159026 326.528072 
L 142.312963 324.782227 
L 155.718368 323.018574 
L 167.666664 321.230895 
L 178.449273 319.401869 
L 188.357616 317.498856 
L 197.391694 315.535701 
L 205.551506 313.533228 
L 212.837052 311.520731 
L 219.539755 309.441672 
L 225.659614 307.312608 
L 231.196629 305.156937 
L 236.442222 302.872145 
L 241.104972 300.602801 
L 245.4763 298.230292 
L 249.556206 295.759299 
L 253.34469 293.198405 
L 256.841752 290.561191 
L 260.047393 287.86745 
L 262.961611 285.144445 
L 265.87583 282.108705 
L 268.498627 279.055948 
L 271.121423 275.636407 
L 273.452798 272.224878 
L 275.784173 268.387425 
L 277.824126 264.604993 
L 279.864079 260.337476 
L 281.61261 256.208544 
L 283.361141 251.545938 
L 285.109672 246.223807 
L 286.858204 240.070404 
L 288.315313 234.136143 
L 289.772422 227.262538 
L 291.229531 219.172376 
L 292.395219 211.557044 
L 293.560906 202.603222 
L 294.726594 191.866449 
L 295.892281 178.663766 
L 296.766547 166.498096 
L 297.640812 151.579933 
L 298.515078 132.685403 
L 299.389343 107.66219 
L 299.972187 85.641045 
L 300.555031 56.769895 
L 301.137875 16.555748 
L 301.32677 -1 
L 301.32677 -1 
" clip-path="url(#p22e7507e97)" style="fill: none; stroke: #eba62a; stroke-width: 1.5; stroke-linecap: square"/>
   </g>
   <g id="line2d_14">
    <path d="M 46.14375 364.4592 
L 46.435172 364.015799 
L 46.726594 362.698105 
L 47.309437 357.611887 
L 47.892281 349.768521 
L 49.057969 329.511056 
L 50.223656 310.658553 
L 50.8065 304.412141 
L 51.097922 302.429128 
L 51.389343 301.285542 
L 51.680765 301.012054 
L 51.972187 301.615219 
L 52.263609 303.077373 
L 52.846453 308.390852 
L 53.429296 316.363802 
L 54.886406 341.735173 
L 55.760671 355.156069 
L 56.343515 361.236956 
L 56.634937 363.143418 
L 56.926359 364.217819 
L 57.217781 364.431044 
L 57.509202 363.777317 
L 57.800624 362.274286 
L 58.383468 356.90416 
L 58.966312 348.894604 
L 60.131999 328.55875 
L 61.297687 309.664196 
L 61.88053 303.299619 
L 62.171952 301.222123 
L 62.463374 299.96003 
L 62.754796 299.545737 
L 63.046218 299.98917 
L 63.33764 301.277588 
L 63.920483 306.228097 
L 64.503327 313.871757 
L 65.669014 333.826416 
L 66.834702 353.017738 
L 67.417546 359.794805 
L 68.000389 363.683153 
L 68.291811 364.405887 
L 68.583233 364.282264 
L 68.874655 363.315465 
L 69.166077 361.530389 
L 69.74892 355.708802 
L 70.623186 342.589582 
L 72.663139 308.143453 
L 73.245983 301.805685 
L 73.828826 298.421732 
L 74.120248 297.953792 
L 74.41167 298.32315 
L 74.703092 299.519457 
L 75.285936 304.248569 
L 75.868779 311.661815 
L 76.743045 326.131884 
L 78.200154 350.996133 
L 78.782998 358.319178 
L 79.365842 362.957429 
L 79.657264 364.115842 
L 79.948685 364.455935 
L 80.240107 363.969349 
L 80.531529 362.668006 
L 81.114373 357.767529 
L 81.697217 350.230025 
L 82.571482 335.626323 
L 84.028591 310.473491 
L 84.611435 302.944872 
L 85.194279 298.032559 
L 85.485701 296.712697 
L 85.777123 296.197298 
L 86.068544 296.497605 
L 86.359966 297.605363 
L 86.651388 299.493072 
L 87.234232 305.40691 
L 88.108497 318.447876 
L 90.14845 352.900934 
L 90.731294 359.592354 
L 91.314138 363.535877 
L 91.60556 364.351579 
L 91.896981 364.365138 
L 92.188403 363.57623 
L 92.479825 362.003155 
L 93.062669 356.667474 
L 93.645513 348.848165 
L 94.8112 328.780559 
L 95.976887 308.939896 
L 96.559731 301.371091 
L 97.142575 296.330196 
L 97.433997 294.907533 
L 97.725419 294.263884 
L 98.01684 294.412687 
L 98.308262 295.349466 
L 98.599684 297.051996 
L 99.182528 302.580412 
L 99.765372 310.495917 
L 100.931059 330.492563 
L 102.096746 350.061045 
L 102.67959 357.490512 
L 103.262434 362.423013 
L 103.553856 363.807889 
L 103.845278 364.425824 
L 104.136699 364.263252 
L 104.428121 363.323726 
L 104.719543 361.627778 
L 105.302387 356.130221 
L 105.885231 348.246291 
L 107.050918 328.182448 
L 108.216605 308.166413 
L 108.799449 300.32449 
L 109.382293 294.856953 
L 109.673715 293.165199 
L 109.965137 292.219748 
L 110.256558 292.03956 
L 110.54798 292.627308 
L 110.839402 293.969383 
L 111.422246 298.78309 
L 112.00509 306.067663 
L 112.879355 320.232089 
L 114.627886 350.072147 
L 115.21073 357.414473 
L 115.793574 362.326217 
L 116.084996 363.735422 
L 116.376417 364.403199 
L 116.667839 364.315804 
L 116.959261 363.475024 
L 117.250683 361.898078 
L 117.833527 356.678933 
L 118.41637 349.081591 
L 119.582058 329.346764 
L 121.039167 304.453198 
L 121.622011 296.990058 
L 122.204855 291.910536 
L 122.496276 290.396269 
L 122.787698 289.608922 
L 123.07912 289.562942 
L 123.370542 290.258048 
L 123.661964 291.679292 
L 124.244808 296.569495 
L 124.827651 303.841056 
L 125.701917 317.912603 
L 127.450448 348.01411 
L 128.324714 358.821983 
L 128.907557 363.038549 
L 129.198979 364.110262 
L 129.490401 364.459023 
L 129.781823 364.078154 
L 130.073245 362.974918 
L 130.656088 358.69864 
L 131.238932 351.953158 
L 132.113198 338.356101 
L 134.444573 298.828449 
L 135.027416 292.191104 
L 135.61026 288.008496 
L 135.901682 286.938697 
L 136.193104 286.578804 
L 136.484526 286.934194 
L 136.775947 287.997107 
L 137.358791 292.150186 
L 137.941635 298.726549 
L 138.8159 312.03399 
L 141.147275 351.305655 
L 141.730119 358.128262 
L 142.312963 362.607454 
L 142.604385 363.862016 
L 142.895806 364.426313 
L 143.187228 364.290376 
L 143.47865 363.456592 
L 143.770072 361.939608 
L 144.352916 356.973841 
L 144.935759 349.738458 
L 145.810025 335.759669 
L 148.1414 296.173012 
L 148.724244 289.421216 
L 149.307087 284.997078 
L 149.598509 283.755056 
L 149.889931 283.189769 
L 150.181353 283.309466 
L 150.472775 284.110835 
L 150.764197 285.579112 
L 151.34704 290.402061 
L 151.929884 297.447176 
L 152.80415 311.10662 
L 155.135524 350.402673 
L 155.718368 357.346891 
L 156.301212 362.0836 
L 156.592634 363.522185 
L 156.884056 364.306487 
L 157.175477 364.423856 
L 157.466899 363.872396 
L 157.758321 362.660948 
L 158.341165 358.345778 
L 158.924009 351.752212 
L 159.798274 338.533212 
L 162.712493 289.897271 
L 163.295336 283.883083 
L 163.87818 280.191372 
L 164.169602 279.289834 
L 164.461024 279.037717 
L 164.752446 279.437513 
L 165.043868 280.481764 
L 165.626711 284.425209 
L 166.209555 290.619377 
L 167.083821 303.263249 
L 170.289461 355.193662 
L 170.872305 360.623236 
L 171.455148 363.745748 
L 171.74657 364.379623 
L 172.037992 364.37996 
L 172.329414 363.746747 
L 172.620836 362.4891 
L 173.203679 358.181398 
L 173.786523 351.702308 
L 174.660789 338.743541 
L 177.866429 285.24982 
L 178.449273 279.225715 
L 179.032117 275.388995 
L 179.323538 274.35798 
L 179.61496 273.938127 
L 179.906382 274.133712 
L 180.197804 274.940632 
L 180.489226 276.346515 
L 181.07207 280.865743 
L 181.654913 287.437868 
L 182.529179 300.330094 
L 185.734819 352.868235 
L 186.317663 358.874123 
L 186.900507 362.790986 
L 187.191929 363.898682 
L 187.48335 364.417841 
L 187.774772 364.341833 
L 188.066194 363.671618 
L 188.357616 362.415688 
L 188.94046 358.217271 
L 189.523303 351.956954 
L 190.397569 339.406087 
L 191.854678 313.67402 
L 193.311788 288.684323 
L 194.186053 277.168073 
L 194.768897 271.739725 
L 195.351741 268.413129 
L 195.643162 267.587762 
L 195.934584 267.334253 
L 196.226006 267.654047 
L 196.517428 268.541825 
L 197.100272 271.966945 
L 197.683115 277.437746 
L 198.557381 288.87659 
L 199.723068 308.1871 
L 201.763021 342.949219 
L 202.637287 354.275997 
L 203.220131 359.706285 
L 203.802974 363.147899 
L 204.094396 364.072066 
L 204.385818 364.449677 
L 204.67724 364.276614 
L 204.968662 363.554749 
L 205.260084 362.291886 
L 205.842927 358.2032 
L 206.425771 352.185203 
L 207.300037 340.118138 
L 208.465724 320.191663 
L 210.505677 284.12444 
L 211.379943 271.838478 
L 211.962786 265.580589 
L 212.54563 261.158174 
L 213.128474 258.735078 
L 213.419896 258.302429 
L 213.711318 258.394233 
L 214.002739 259.007887 
L 214.294161 260.135664 
L 214.877005 263.877811 
L 215.459849 269.462022 
L 216.334114 280.776044 
L 217.499802 299.709829 
L 219.831177 339.54471 
L 220.705442 351.286837 
L 221.288286 357.285852 
L 221.87113 361.558709 
L 222.453973 363.951408 
L 222.745395 364.413226 
L 223.036817 364.378409 
L 223.328239 363.84726 
L 223.619661 362.824449 
L 224.202504 359.343836 
L 224.785348 354.057288 
L 225.659614 343.15381 
L 226.825301 324.415843 
L 230.322363 264.149565 
L 231.196629 253.880482 
L 231.779473 248.998994 
L 232.362316 245.859708 
L 232.653738 244.971668 
L 232.94516 244.545912 
L 233.236582 244.583825 
L 233.528004 245.083195 
L 233.819426 246.038269 
L 234.402269 249.27531 
L 234.985113 254.181782 
L 235.859379 264.305109 
L 237.025066 281.791571 
L 240.81355 344.245345 
L 241.687816 354.273372 
L 242.27066 359.198802 
L 242.853503 362.554283 
L 243.144925 363.613402 
L 243.436347 364.249769 
L 243.727769 364.459173 
L 244.019191 364.240235 
L 244.310613 363.594379 
L 244.893456 361.041364 
L 245.4763 356.865547 
L 246.059144 351.172678 
L 246.933409 340.10928 
L 248.099097 321.632098 
L 250.13905 284.161927 
L 251.887581 253.587745 
L 253.053268 237.181104 
L 253.927534 227.967374 
L 254.510377 223.531249 
L 255.093221 220.555808 
L 255.384643 219.631256 
L 255.676065 219.086263 
L 255.967487 218.921366 
L 256.258909 219.135096 
L 256.55033 219.724014 
L 257.133174 222.004114 
L 257.716018 225.696836 
L 258.298862 230.709854 
L 259.173127 240.44279 
L 260.338815 256.776444 
L 262.087346 285.640248 
L 264.418721 324.36215 
L 265.584408 340.609897 
L 266.458674 350.453355 
L 267.332939 357.86877 
L 267.915783 361.325256 
L 268.498627 363.525049 
L 268.790048 364.142186 
L 269.08147 364.433909 
L 269.372892 364.399111 
L 269.664314 364.037919 
L 269.955736 363.351667 
L 270.53858 361.015166 
L 271.121423 357.423144 
L 271.704267 352.626062 
L 272.578533 343.318868 
L 273.452798 331.730171 
L 274.618486 313.313268 
L 276.367017 281.192508 
L 281.029766 191.901278 
L 282.486876 169.093654 
L 283.652563 154.01685 
L 284.818251 142.122828 
L 285.692516 135.402937 
L 286.566782 130.598173 
L 287.149625 128.451414 
L 287.732469 127.133777 
L 288.023891 126.779505 
L 288.315313 126.624106 
L 288.606735 126.664025 
L 288.898157 126.895382 
L 289.481 127.915405 
L 290.063844 129.647498 
L 290.646688 132.051198 
L 291.520953 136.820032 
L 292.395219 142.844749 
L 293.560906 152.546886 
L 295.018016 166.799547 
L 297.057969 189.372562 
L 303.469249 262.456581 
L 305.509202 282.348348 
L 307.257734 297.338922 
L 309.006265 310.343236 
L 310.463374 319.688532 
L 311.920483 327.747245 
L 313.377593 334.613221 
L 314.834702 340.396851 
L 316.291811 345.216519 
L 317.74892 349.19188 
L 319.20603 352.438837 
L 320.663139 355.066034 
L 322.120248 357.172632 
L 323.577358 358.847134 
L 325.034467 360.167008 
L 326.491576 361.198909 
L 328.240107 362.135921 
L 329.988638 362.819209 
L 332.028591 363.379492 
L 334.651388 363.839618 
L 337.274185 364.110576 
L 337.274185 364.110576 
" clip-path="url(#p22e7507e97)" style="fill: none; stroke: #eb892a; stroke-width: 1.5; stroke-linecap: square"/>
   </g>
   <g id="patch_3">
    <path d="M 46.14375 364.4592 
L 46.14375 31.8192 
" style="fill: none; stroke: #c6c8cb; stroke-width: 0.8; stroke-linejoin: miter; stroke-linecap: square"/>
   </g>
   <g id="patch_4">
    <path d="M 380.94375 364.4592 
L 380.94375 31.8192 
" style="fill: none; stroke: #c6c8cb; stroke-width: 0.8; stroke-linejoin: miter; stroke-linecap: square"/>
   </g>
   <g id="patch_5">
    <path d="M 46.14375 364.4592 
L 380.94375 364.4592 
" style="fill: none; stroke: #c6c8cb; stroke-width: 0.8; stroke-linejoin: miter; stroke-linecap: square"/>
   </g>
   <g id="patch_6">
    <path d="M 46.14375 31.8192 
L 380.94375 31.8192 
" style="fill: none; stroke: #c6c8cb; stroke-width: 0.8; stroke-linejoin: miter; stroke-linecap: square"/>
   </g>
   <g id="text_15">
    <!-- The Excited State n=16 -->
    <g style="fill: #c6c8cb" transform="translate(163.2875 28.4928) scale(0.1 -0.1)">
     <defs>
      <path id="DINPro-Regular-54" d="M 3315 4122 
L 3315 4557 
L 192 4557 
L 192 4122 
L 1510 4122 
L 1510 0 
L 1997 0 
L 1997 4122 
L 3315 4122 
z
" transform="scale(0.015625)"/>
      <path id="DINPro-Regular-68" d="M 3053 0 
L 3053 2022 
C 3053 2733 2630 3187 1920 3187 
C 1568 3187 1267 3066 1037 2803 
L 1037 4557 
L 576 4557 
L 576 0 
L 1037 0 
L 1037 1946 
C 1037 2490 1350 2778 1824 2778 
C 2298 2778 2592 2496 2592 1946 
L 2592 0 
L 3053 0 
z
" transform="scale(0.015625)"/>
      <path id="DINPro-Regular-65" d="M 2989 1453 
L 2989 1664 
C 2989 2598 2509 3187 1696 3187 
C 896 3187 403 2592 403 1574 
C 403 461 947 -38 1779 -38 
C 2317 -38 2611 128 2931 448 
L 2618 723 
C 2368 474 2157 365 1792 365 
C 1190 365 864 762 864 1453 
L 2989 1453 
z
M 2528 1798 
L 864 1798 
C 877 2054 890 2150 960 2323 
C 1082 2611 1363 2797 1696 2797 
C 2029 2797 2310 2611 2432 2323 
C 2502 2150 2515 2054 2528 1798 
z
" transform="scale(0.015625)"/>
      <path id="DINPro-Regular-20" transform="scale(0.015625)"/>
      <path id="DINPro-Regular-45" d="M 3488 0 
L 3488 435 
L 1146 435 
L 1146 2080 
L 3142 2080 
L 3142 2515 
L 1146 2515 
L 1146 4122 
L 3488 4122 
L 3488 4557 
L 659 4557 
L 659 0 
L 3488 0 
z
" transform="scale(0.015625)"/>
      <path id="DINPro-Regular-78" d="M 2848 0 
L 1779 1606 
L 2803 3149 
L 2246 3149 
L 1536 1984 
L 813 3149 
L 256 3149 
L 1280 1606 
L 211 0 
L 768 0 
L 1536 1222 
L 2291 0 
L 2848 0 
z
" transform="scale(0.015625)"/>
      <path id="DINPro-Regular-63" d="M 2835 429 
L 2522 730 
C 2285 467 2099 371 1798 371 
C 1491 371 1235 493 1069 730 
C 922 934 864 1178 864 1574 
C 864 1971 922 2214 1069 2419 
C 1235 2656 1491 2778 1798 2778 
C 2099 2778 2285 2688 2522 2426 
L 2835 2720 
C 2509 3072 2234 3187 1798 3187 
C 1005 3187 403 2650 403 1574 
C 403 499 1005 -38 1798 -38 
C 2234 -38 2509 77 2835 429 
z
" transform="scale(0.015625)"/>
      <path id="DINPro-Regular-69" d="M 1037 0 
L 1037 3149 
L 576 3149 
L 576 0 
L 1037 0 
z
M 1069 4045 
L 1069 4563 
L 550 4563 
L 550 4045 
L 1069 4045 
z
" transform="scale(0.015625)"/>
      <path id="DINPro-Regular-74" d="M 1786 0 
L 1786 397 
L 1542 397 
C 1248 397 1114 570 1114 858 
L 1114 2778 
L 1786 2778 
L 1786 3130 
L 1114 3130 
L 1114 4115 
L 653 4115 
L 653 3130 
L 256 3130 
L 256 2778 
L 653 2778 
L 653 845 
C 653 378 922 0 1459 0 
L 1786 0 
z
" transform="scale(0.015625)"/>
      <path id="DINPro-Regular-64" d="M 2912 0 
L 2912 4557 
L 2451 4557 
L 2451 2784 
C 2195 3110 1907 3187 1562 3187 
C 1242 3187 960 3078 794 2912 
C 474 2592 410 2067 410 1574 
C 410 1082 474 557 794 237 
C 960 70 1242 -38 1562 -38 
C 1907 -38 2202 45 2458 378 
L 2458 0 
L 2912 0 
z
M 2451 1574 
C 2451 960 2349 371 1664 371 
C 979 371 870 960 870 1574 
C 870 2189 979 2778 1664 2778 
C 2349 2778 2451 2189 2451 1574 
z
" transform="scale(0.015625)"/>
      <path id="DINPro-Regular-53" d="M 3405 1254 
C 3405 1632 3270 1946 3021 2157 
C 2829 2323 2618 2413 2189 2477 
L 1690 2554 
C 1453 2592 1216 2682 1075 2803 
C 934 2925 870 3104 870 3328 
C 870 3834 1222 4173 1830 4173 
C 2310 4173 2611 4038 2893 3782 
L 3206 4096 
C 2816 4448 2432 4595 1850 4595 
C 947 4595 390 4083 390 3309 
C 390 2944 506 2662 736 2458 
C 934 2285 1216 2170 1574 2112 
L 2106 2029 
C 2438 1978 2554 1939 2701 1811 
C 2848 1683 2918 1478 2918 1242 
C 2918 710 2509 397 1843 397 
C 1331 397 979 518 602 896 
L 269 563 
C 698 134 1146 -38 1830 -38 
C 2778 -38 3405 454 3405 1254 
z
" transform="scale(0.015625)"/>
      <path id="DINPro-Regular-61" d="M 2822 0 
L 2822 2138 
C 2822 2822 2406 3187 1562 3187 
C 1050 3187 730 3085 448 2720 
L 762 2432 
C 947 2694 1152 2790 1555 2790 
C 2131 2790 2362 2560 2362 2099 
L 2362 1798 
L 1414 1798 
C 710 1798 326 1440 326 890 
C 326 640 410 403 563 250 
C 762 45 1018 -38 1453 -38 
C 1875 -38 2106 45 2362 301 
L 2362 0 
L 2822 0 
z
M 2362 1114 
C 2362 851 2310 672 2202 570 
C 2003 378 1766 358 1498 358 
C 998 358 774 531 774 896 
C 774 1261 1005 1453 1478 1453 
L 2362 1453 
L 2362 1114 
z
" transform="scale(0.015625)"/>
      <path id="DINPro-Regular-6e" d="M 3053 0 
L 3053 2016 
C 3053 2381 2950 2675 2726 2893 
C 2534 3085 2259 3187 1920 3187 
C 1568 3187 1261 3059 1037 2803 
L 1037 3149 
L 576 3149 
L 576 0 
L 1037 0 
L 1037 1939 
C 1037 2490 1344 2778 1818 2778 
C 2291 2778 2592 2496 2592 1939 
L 2592 0 
L 3053 0 
z
" transform="scale(0.015625)"/>
      <path id="DINPro-Regular-3d" d="M 3008 2048 
L 3008 2477 
L 333 2477 
L 333 2048 
L 3008 2048 
z
M 3008 966 
L 3008 1389 
L 333 1389 
L 333 966 
L 3008 966 
z
" transform="scale(0.015625)"/>
      <path id="DINPro-Regular-31" d="M 2112 0 
L 2112 4557 
L 1651 4557 
L 800 3821 
L 800 3296 
L 1651 4045 
L 1651 0 
L 2112 0 
z
" transform="scale(0.015625)"/>
      <path id="DINPro-Regular-36" d="M 2944 1312 
C 2944 2061 2470 2605 1760 2605 
C 1581 2605 1421 2573 1280 2509 
L 2298 4557 
L 1824 4557 
L 704 2298 
C 512 1914 416 1600 416 1274 
C 416 486 909 -38 1683 -38 
C 2458 -38 2944 538 2944 1312 
z
M 2483 1293 
C 2483 736 2163 371 1677 371 
C 1190 371 877 736 877 1293 
C 877 1856 1190 2214 1677 2214 
C 2202 2214 2483 1798 2483 1293 
z
" transform="scale(0.015625)"/>
     </defs>
     <use xlink:href="#DINPro-Regular-54"/>
     <use xlink:href="#DINPro-Regular-68" x="54.799988"/>
     <use xlink:href="#DINPro-Regular-65" x="110.999985"/>
     <use xlink:href="#DINPro-Regular-20" x="163.999969"/>
     <use xlink:href="#DINPro-Regular-45" x="188.899963"/>
     <use xlink:href="#DINPro-Regular-78" x="248.899948"/>
     <use xlink:href="#DINPro-Regular-63" x="296.699936"/>
     <use xlink:href="#DINPro-Regular-69" x="345.699921"/>
     <use xlink:href="#DINPro-Regular-74" x="370.999908"/>
     <use xlink:href="#DINPro-Regular-65" x="404.199905"/>
     <use xlink:href="#DINPro-Regular-64" x="457.19989"/>
     <use xlink:href="#DINPro-Regular-20" x="511.699875"/>
     <use xlink:href="#DINPro-Regular-53" x="536.599869"/>
     <use xlink:href="#DINPro-Regular-74" x="595.399857"/>
     <use xlink:href="#DINPro-Regular-61" x="628.599854"/>
     <use xlink:href="#DINPro-Regular-74" x="681.199844"/>
     <use xlink:href="#DINPro-Regular-65" x="714.399841"/>
     <use xlink:href="#DINPro-Regular-20" x="767.399826"/>
     <use xlink:href="#DINPro-Regular-6e" x="792.29982"/>
     <use xlink:href="#DINPro-Regular-3d" x="848.499817"/>
     <use xlink:href="#DINPro-Regular-31" x="900.699814"/>
     <use xlink:href="#DINPro-Regular-36" x="952.899811"/>
    </g>
   </g>
   <g id="text_16">
    <!-- Classical -->
    <g style="fill: #eba62a" transform="translate(308.161141 45.512669) scale(0.1 -0.1)">
     <defs>
      <path id="DINPro-Bold-43" d="M 3731 1402 
L 2829 1402 
C 2733 1011 2490 755 2061 755 
C 1818 755 1626 832 1491 992 
C 1306 1190 1267 1395 1267 2278 
C 1267 3162 1306 3366 1491 3565 
C 1626 3725 1818 3802 2061 3802 
C 2490 3802 2733 3546 2829 3155 
L 3731 3155 
C 3578 4083 2931 4595 2054 4595 
C 1568 4595 1158 4429 826 4096 
C 627 3898 506 3674 454 3411 
C 403 3155 378 2778 378 2278 
C 378 1779 403 1402 454 1146 
C 506 890 627 659 826 461 
C 1158 128 1568 -38 2054 -38 
C 2925 -38 3578 474 3731 1402 
z
" transform="scale(0.015625)"/>
      <path id="DINPro-Bold-6c" d="M 1882 0 
L 1882 704 
L 1562 704 
C 1350 704 1267 806 1267 1005 
L 1267 4557 
L 435 4557 
L 435 954 
C 435 480 723 0 1408 0 
L 1882 0 
z
" transform="scale(0.015625)"/>
      <path id="DINPro-Bold-61" d="M 2989 0 
L 2989 2195 
C 2989 2976 2502 3373 1568 3373 
C 1011 3373 691 3270 365 2912 
L 896 2394 
C 1069 2592 1216 2669 1536 2669 
C 1978 2669 2157 2509 2157 2144 
L 2157 1978 
L 1370 1978 
C 595 1978 230 1542 230 1011 
C 230 717 326 448 506 262 
C 704 64 979 -32 1357 -32 
C 1741 -32 1952 64 2176 288 
L 2176 0 
L 2989 0 
z
M 2157 1229 
C 2157 1024 2125 890 2035 806 
C 1888 666 1741 646 1510 646 
C 1184 646 1030 800 1030 1030 
C 1030 1267 1197 1408 1498 1408 
L 2157 1408 
L 2157 1229 
z
" transform="scale(0.015625)"/>
      <path id="DINPro-Bold-73" d="M 2976 1050 
C 2976 1613 2643 1965 1984 2029 
L 1459 2080 
C 1165 2106 1114 2246 1114 2368 
C 1114 2534 1254 2688 1587 2688 
C 1875 2688 2170 2637 2362 2464 
L 2874 2982 
C 2554 3283 2118 3373 1600 3373 
C 922 3373 314 3002 314 2310 
C 314 1696 685 1434 1286 1376 
L 1811 1325 
C 2074 1299 2163 1184 2163 1018 
C 2163 768 1862 672 1574 672 
C 1318 672 960 710 685 986 
L 141 442 
C 563 19 1037 -38 1562 -38 
C 2349 -38 2976 314 2976 1050 
z
" transform="scale(0.015625)"/>
      <path id="DINPro-Bold-69" d="M 1299 0 
L 1299 3334 
L 467 3334 
L 467 0 
L 1299 0 
z
M 1306 3904 
L 1306 4582 
L 454 4582 
L 454 3904 
L 1306 3904 
z
" transform="scale(0.015625)"/>
      <path id="DINPro-Bold-63" d="M 2893 416 
L 2330 973 
C 2157 787 2010 710 1792 710 
C 1594 710 1440 781 1318 928 
C 1190 1088 1133 1318 1133 1670 
C 1133 2022 1190 2246 1318 2406 
C 1440 2554 1594 2624 1792 2624 
C 2010 2624 2157 2547 2330 2362 
L 2893 2925 
C 2598 3232 2253 3373 1792 3373 
C 1126 3373 301 3021 301 1670 
C 301 320 1126 -38 1792 -38 
C 2253 -38 2598 109 2893 416 
z
" transform="scale(0.015625)"/>
     </defs>
     <use xlink:href="#DINPro-Bold-43"/>
     <use xlink:href="#DINPro-Bold-6c" x="61.999985"/>
     <use xlink:href="#DINPro-Bold-61" x="94.499969"/>
     <use xlink:href="#DINPro-Bold-73" x="147.899963"/>
     <use xlink:href="#DINPro-Bold-73" x="197.999954"/>
     <use xlink:href="#DINPro-Bold-69" x="248.099945"/>
     <use xlink:href="#DINPro-Bold-63" x="275.59993"/>
     <use xlink:href="#DINPro-Bold-61" x="323.599915"/>
     <use xlink:href="#DINPro-Bold-6c" x="376.999908"/>
    </g>
   </g>
   <g id="text_17">
    <!-- Quantum -->
    <g style="fill: #eb892a" transform="translate(329.995924 355.976669) scale(0.1 -0.1)">
     <defs>
      <path id="DINPro-Bold-51" d="M 3853 275 
L 3462 666 
C 3750 1088 3744 1594 3744 2278 
C 3744 3066 3750 3635 3290 4096 
C 2970 4416 2579 4595 2061 4595 
C 1542 4595 1146 4416 826 4096 
C 365 3635 378 3066 378 2278 
C 378 1491 365 922 826 461 
C 1146 141 1542 -38 2061 -38 
C 2419 -38 2726 45 2982 211 
L 3386 -192 
L 3853 275 
z
M 2854 2278 
C 2854 1818 2842 1555 2771 1357 
L 2432 1696 
L 1958 1229 
L 2355 838 
C 2272 781 2170 755 2061 755 
C 1818 755 1613 851 1485 998 
C 1312 1190 1267 1402 1267 2278 
C 1267 3155 1312 3366 1485 3558 
C 1613 3706 1818 3802 2061 3802 
C 2304 3802 2502 3706 2630 3558 
C 2803 3366 2854 3155 2854 2278 
z
" transform="scale(0.015625)"/>
      <path id="DINPro-Bold-75" d="M 3200 0 
L 3200 3334 
L 2368 3334 
L 2368 1318 
C 2368 864 2074 710 1811 710 
C 1549 710 1261 864 1261 1318 
L 1261 3334 
L 429 3334 
L 429 1203 
C 429 838 499 525 768 256 
C 954 70 1222 -38 1555 -38 
C 1862 -38 2170 77 2387 307 
L 2387 0 
L 3200 0 
z
" transform="scale(0.015625)"/>
      <path id="DINPro-Bold-6e" d="M 3238 0 
L 3238 2131 
C 3238 2496 3168 2810 2899 3078 
C 2714 3264 2445 3373 2112 3373 
C 1805 3373 1498 3258 1280 3027 
L 1280 3334 
L 467 3334 
L 467 0 
L 1299 0 
L 1299 2016 
C 1299 2470 1594 2624 1856 2624 
C 2118 2624 2406 2470 2406 2016 
L 2406 0 
L 3238 0 
z
" transform="scale(0.015625)"/>
      <path id="DINPro-Bold-74" d="M 1965 0 
L 1965 704 
L 1664 704 
C 1466 704 1376 813 1376 1005 
L 1376 2605 
L 1965 2605 
L 1965 3238 
L 1376 3238 
L 1376 4224 
L 544 4224 
L 544 3238 
L 192 3238 
L 192 2605 
L 544 2605 
L 544 954 
C 544 480 832 0 1510 0 
L 1965 0 
z
" transform="scale(0.015625)"/>
      <path id="DINPro-Bold-6d" d="M 5178 0 
L 5178 2131 
C 5178 2496 5082 2810 4813 3078 
C 4627 3264 4326 3373 3994 3373 
C 3578 3373 3277 3245 2995 2950 
C 2784 3238 2483 3373 2112 3373 
C 1805 3373 1498 3251 1280 3027 
L 1280 3334 
L 467 3334 
L 467 0 
L 1299 0 
L 1299 2016 
C 1299 2470 1594 2624 1856 2624 
C 2118 2624 2406 2470 2406 2016 
L 2406 0 
L 3238 0 
L 3238 2035 
C 3238 2470 3539 2624 3795 2624 
C 4058 2624 4346 2470 4346 2016 
L 4346 0 
L 5178 0 
z
" transform="scale(0.015625)"/>
     </defs>
     <use xlink:href="#DINPro-Bold-51"/>
     <use xlink:href="#DINPro-Bold-75" x="64.299988"/>
     <use xlink:href="#DINPro-Bold-61" x="121.599976"/>
     <use xlink:href="#DINPro-Bold-6e" x="174.999969"/>
     <use xlink:href="#DINPro-Bold-74" x="232.299957"/>
     <use xlink:href="#DINPro-Bold-75" x="267.499954"/>
     <use xlink:href="#DINPro-Bold-6d" x="324.799942"/>
    </g>
   </g>
   <g id="text_18">
    <!-- A quantum particle in a gravitational field -->
    <g style="fill: #c6c8cb" transform="translate(100.538438 15.84) scale(0.12 -0.12)">
     <defs>
      <path id="DINPro-Bold-41" d="M 4051 0 
L 2387 4557 
L 1690 4557 
L 32 0 
L 960 0 
L 1235 806 
L 2854 806 
L 3123 0 
L 4051 0 
z
M 2618 1555 
L 1485 1555 
L 2061 3213 
L 2618 1555 
z
" transform="scale(0.015625)"/>
      <path id="DINPro-Bold-20" transform="scale(0.015625)"/>
      <path id="DINPro-Bold-70" d="M 3258 1670 
C 3258 2170 3251 2739 2918 3072 
C 2733 3258 2432 3373 2106 3373 
C 1754 3373 1504 3277 1274 3021 
L 1274 3334 
L 467 3334 
L 467 -1222 
L 1299 -1222 
L 1299 294 
C 1517 51 1766 -38 2106 -38 
C 2432 -38 2733 77 2918 262 
C 3251 595 3258 1171 3258 1670 
z
M 2426 1670 
C 2426 1126 2362 710 1862 710 
C 1363 710 1299 1126 1299 1670 
C 1299 2214 1363 2624 1862 2624 
C 2362 2624 2426 2214 2426 1670 
z
" transform="scale(0.015625)"/>
      <path id="DINPro-Bold-72" d="M 2906 3059 
C 2675 3290 2445 3373 2118 3373 
C 1760 3373 1440 3206 1280 3014 
L 1280 3334 
L 467 3334 
L 467 0 
L 1299 0 
L 1299 2010 
C 1299 2432 1581 2624 1837 2624 
C 2042 2624 2150 2554 2278 2426 
L 2906 3059 
z
" transform="scale(0.015625)"/>
      <path id="DINPro-Bold-65" d="M 3206 1408 
L 3206 1779 
C 3206 2694 2682 3373 1754 3373 
C 890 3373 301 2758 301 1670 
C 301 320 1056 -38 1843 -38 
C 2445 -38 2771 147 3110 486 
L 2605 979 
C 2394 768 2214 666 1850 666 
C 1382 666 1120 979 1120 1408 
L 3206 1408 
z
M 2387 1978 
L 1120 1978 
C 1126 2125 1146 2214 1197 2336 
C 1286 2534 1472 2682 1754 2682 
C 2035 2682 2221 2534 2310 2336 
C 2362 2214 2381 2125 2387 1978 
z
" transform="scale(0.015625)"/>
      <path id="DINPro-Bold-67" d="M 3085 122 
L 3085 3334 
L 2278 3334 
L 2278 3021 
C 2048 3277 1818 3373 1466 3373 
C 1139 3373 851 3264 666 3078 
C 352 2765 326 2342 326 1760 
C 326 1178 352 749 666 435 
C 851 250 1133 141 1459 141 
C 1786 141 2035 230 2253 474 
L 2253 134 
C 2253 -205 2080 -557 1581 -557 
C 1299 -557 1114 -480 928 -301 
L 410 -826 
C 755 -1158 1107 -1261 1619 -1261 
C 2515 -1261 3085 -678 3085 122 
z
M 2253 1760 
C 2253 1318 2195 890 1702 890 
C 1210 890 1158 1318 1158 1760 
C 1158 2202 1210 2624 1702 2624 
C 2195 2624 2253 2202 2253 1760 
z
" transform="scale(0.015625)"/>
      <path id="DINPro-Bold-76" d="M 3130 3334 
L 2253 3334 
L 1581 1274 
L 902 3334 
L 26 3334 
L 1254 0 
L 1907 0 
L 3130 3334 
z
" transform="scale(0.015625)"/>
      <path id="DINPro-Bold-6f" d="M 3149 1670 
C 3149 2272 3072 2650 2771 2963 
C 2566 3181 2227 3373 1734 3373 
C 1242 3373 909 3181 704 2963 
C 403 2650 326 2272 326 1670 
C 326 1062 403 685 704 371 
C 909 154 1242 -38 1734 -38 
C 2227 -38 2566 154 2771 371 
C 3072 685 3149 1062 3149 1670 
z
M 2317 1670 
C 2317 1325 2298 1030 2125 858 
C 2029 762 1901 710 1734 710 
C 1568 710 1446 762 1350 858 
C 1178 1030 1158 1325 1158 1670 
C 1158 2016 1178 2304 1350 2477 
C 1446 2573 1568 2624 1734 2624 
C 1901 2624 2029 2573 2125 2477 
C 2298 2304 2317 2016 2317 1670 
z
" transform="scale(0.015625)"/>
      <path id="DINPro-Bold-66" d="M 2016 2605 
L 2016 3238 
L 1402 3238 
L 1402 3603 
C 1402 3795 1491 3904 1690 3904 
L 2016 3904 
L 2016 4608 
L 1542 4608 
C 864 4608 570 4128 570 3654 
L 570 3238 
L 224 3238 
L 224 2605 
L 570 2605 
L 570 0 
L 1402 0 
L 1402 2605 
L 2016 2605 
z
" transform="scale(0.015625)"/>
      <path id="DINPro-Bold-64" d="M 3123 0 
L 3123 4557 
L 2291 4557 
L 2291 3040 
C 2074 3283 1818 3373 1478 3373 
C 1152 3373 851 3258 666 3072 
C 333 2739 326 2170 326 1670 
C 326 1171 333 595 666 262 
C 851 77 1158 -38 1485 -38 
C 1837 -38 2080 58 2310 314 
L 2310 0 
L 3123 0 
z
M 2291 1670 
C 2291 1126 2221 710 1722 710 
C 1222 710 1158 1126 1158 1670 
C 1158 2214 1222 2624 1722 2624 
C 2221 2624 2291 2214 2291 1670 
z
" transform="scale(0.015625)"/>
     </defs>
     <use xlink:href="#DINPro-Bold-41"/>
     <use xlink:href="#DINPro-Bold-20" x="63.799988"/>
     <use xlink:href="#DINPro-Bold-71" x="86.999985"/>
     <use xlink:href="#DINPro-Bold-75" x="143.099976"/>
     <use xlink:href="#DINPro-Bold-61" x="200.399963"/>
     <use xlink:href="#DINPro-Bold-6e" x="253.799957"/>
     <use xlink:href="#DINPro-Bold-74" x="311.099945"/>
     <use xlink:href="#DINPro-Bold-75" x="346.299942"/>
     <use xlink:href="#DINPro-Bold-6d" x="403.59993"/>
     <use xlink:href="#DINPro-Bold-20" x="491.199921"/>
     <use xlink:href="#DINPro-Bold-70" x="514.399918"/>
     <use xlink:href="#DINPro-Bold-61" x="570.399902"/>
     <use xlink:href="#DINPro-Bold-72" x="623.799896"/>
     <use xlink:href="#DINPro-Bold-74" x="669.299881"/>
     <use xlink:href="#DINPro-Bold-69" x="704.499878"/>
     <use xlink:href="#DINPro-Bold-63" x="731.999863"/>
     <use xlink:href="#DINPro-Bold-6c" x="779.999847"/>
     <use xlink:href="#DINPro-Bold-65" x="812.499832"/>
     <use xlink:href="#DINPro-Bold-20" x="867.29982"/>
     <use xlink:href="#DINPro-Bold-69" x="890.499817"/>
     <use xlink:href="#DINPro-Bold-6e" x="917.999802"/>
     <use xlink:href="#DINPro-Bold-20" x="975.299789"/>
     <use xlink:href="#DINPro-Bold-61" x="998.499786"/>
     <use xlink:href="#DINPro-Bold-20" x="1051.89978"/>
     <use xlink:href="#DINPro-Bold-67" x="1075.099777"/>
     <use xlink:href="#DINPro-Bold-72" x="1130.599762"/>
     <use xlink:href="#DINPro-Bold-61" x="1176.099747"/>
     <use xlink:href="#DINPro-Bold-76" x="1229.499741"/>
     <use xlink:href="#DINPro-Bold-69" x="1278.799728"/>
     <use xlink:href="#DINPro-Bold-74" x="1306.299713"/>
     <use xlink:href="#DINPro-Bold-61" x="1341.49971"/>
     <use xlink:href="#DINPro-Bold-74" x="1394.899704"/>
     <use xlink:href="#DINPro-Bold-69" x="1430.099701"/>
     <use xlink:href="#DINPro-Bold-6f" x="1457.599686"/>
     <use xlink:href="#DINPro-Bold-6e" x="1511.899673"/>
     <use xlink:href="#DINPro-Bold-61" x="1569.199661"/>
     <use xlink:href="#DINPro-Bold-6c" x="1622.599655"/>
     <use xlink:href="#DINPro-Bold-20" x="1655.09964"/>
     <use xlink:href="#DINPro-Bold-66" x="1678.299637"/>
     <use xlink:href="#DINPro-Bold-69" x="1712.499634"/>
     <use xlink:href="#DINPro-Bold-65" x="1739.999619"/>
     <use xlink:href="#DINPro-Bold-6c" x="1794.799606"/>
     <use xlink:href="#DINPro-Bold-64" x="1827.299591"/>
    </g>
   </g>
  </g>
 </g>
 <defs>
  <clipPath id="p22e7507e97">
   <rect x="46.14375" y="31.8192" width="334.8" height="332.64"/>
  </clipPath>
 </defs>
</svg>
