<?xml version="1.0" encoding="utf-8" standalone="no"?>
<!DOCTYPE svg PUBLIC "-//W3C//DTD SVG 1.1//EN"
  "http://www.w3.org/Graphics/SVG/1.1/DTD/svg11.dtd">
<svg xmlns:xlink="http://www.w3.org/1999/xlink" width="432pt" height="432pt" viewBox="0 0 432 432" xmlns="http://www.w3.org/2000/svg" version="1.1">
 <metadata>
  <rdf:RDF xmlns:dc="http://purl.org/dc/elements/1.1/" xmlns:cc="http://creativecommons.org/ns#" xmlns:rdf="http://www.w3.org/1999/02/22-rdf-syntax-ns#">
   <cc:Work>
    <dc:type rdf:resource="http://purl.org/dc/dcmitype/StillImage"/>
    <dc:date>2023-12-28T11:32:05.783804</dc:date>
    <dc:format>image/svg+xml</dc:format>
    <dc:creator>
     <cc:Agent>
      <dc:title>Matplotlib v3.7.1, https://matplotlib.org/</dc:title>
     </cc:Agent>
    </dc:creator>
   </cc:Work>
  </rdf:RDF>
 </metadata>
 <defs>
  <style type="text/css">*{stroke-linejoin: round; stroke-linecap: butt}</style>
 </defs>
 <g id="figure_1">
  <g id="patch_1">
   <path d="M 0 432 
L 432 432 
L 432 0 
L 0 0 
z
" style="fill: #9f9f9f"/>
  </g>
  <g id="axes_1">
   <g id="patch_2">
    <path d="M 54 384.48 
L 388.8 384.48 
L 388.8 51.84 
L 54 51.84 
z
" style="fill: #9f9f9f"/>
   </g>
   <g id="matplotlib.axis_1">
    <g id="xtick_1">
     <g id="line2d_1">
      <defs>
       <path id="mfd3f7934fb" d="M 0 0 
L 0 3.5 
" style="stroke: #c6c8cb; stroke-width: 0.8"/>
      </defs>
      <g>
       <use xlink:href="#mfd3f7934fb" x="54" y="384.48" style="fill: #c6c8cb; stroke: #c6c8cb; stroke-width: 0.8"/>
      </g>
     </g>
     <g id="text_1">
      <!-- 0 -->
      <g style="fill: #c6c8cb" transform="translate(51.285156 398.600312) scale(0.1 -0.1)">
       <defs>
        <path id="DINPro-Bold-30" d="M 3123 1318 
L 3123 3238 
C 3123 4109 2483 4595 1741 4595 
C 998 4595 352 4109 352 3238 
L 352 1318 
C 352 448 998 -38 1741 -38 
C 2483 -38 3123 448 3123 1318 
z
M 2291 1325 
C 2291 941 2067 710 1741 710 
C 1414 710 1184 941 1184 1325 
L 1184 3226 
C 1184 3610 1414 3846 1741 3846 
C 2067 3846 2291 3610 2291 3226 
L 2291 1325 
z
" transform="scale(0.015625)"/>
       </defs>
       <use xlink:href="#DINPro-Bold-30"/>
      </g>
     </g>
    </g>
    <g id="xtick_2">
     <g id="line2d_2">
      <g>
       <use xlink:href="#mfd3f7934fb" x="126.782609" y="384.48" style="fill: #c6c8cb; stroke: #c6c8cb; stroke-width: 0.8"/>
      </g>
     </g>
     <g id="text_2">
      <!-- 5 -->
      <g style="fill: #c6c8cb" transform="translate(124.067765 398.600312) scale(0.1 -0.1)">
       <defs>
        <path id="DINPro-Bold-35" d="M 3162 1536 
C 3162 1965 3110 2394 2752 2752 
C 2566 2938 2278 3059 1901 3059 
C 1594 3059 1338 2944 1216 2829 
L 1216 3808 
L 3059 3808 
L 3059 4557 
L 461 4557 
L 461 1984 
L 1222 1984 
C 1280 2163 1434 2355 1773 2355 
C 2176 2355 2330 2061 2330 1536 
C 2330 1248 2298 1005 2150 858 
C 2048 755 1914 710 1754 710 
C 1408 710 1242 915 1197 1274 
L 365 1274 
C 390 941 454 608 736 326 
C 934 128 1280 -38 1754 -38 
C 2227 -38 2554 128 2758 333 
C 3091 666 3162 1024 3162 1536 
z
" transform="scale(0.015625)"/>
       </defs>
       <use xlink:href="#DINPro-Bold-35"/>
      </g>
     </g>
    </g>
    <g id="xtick_3">
     <g id="line2d_3">
      <g>
       <use xlink:href="#mfd3f7934fb" x="199.565217" y="384.48" style="fill: #c6c8cb; stroke: #c6c8cb; stroke-width: 0.8"/>
      </g>
     </g>
     <g id="text_3">
      <!-- 10 -->
      <g style="fill: #c6c8cb" transform="translate(194.13553 398.600312) scale(0.1 -0.1)">
       <defs>
        <path id="DINPro-Bold-31" d="M 2419 0 
L 2419 4557 
L 1587 4557 
L 659 3750 
L 659 2854 
L 1587 3661 
L 1587 0 
L 2419 0 
z
" transform="scale(0.015625)"/>
       </defs>
       <use xlink:href="#DINPro-Bold-31"/>
       <use xlink:href="#DINPro-Bold-30" x="54.299988"/>
      </g>
     </g>
    </g>
    <g id="xtick_4">
     <g id="line2d_4">
      <g>
       <use xlink:href="#mfd3f7934fb" x="272.347826" y="384.48" style="fill: #c6c8cb; stroke: #c6c8cb; stroke-width: 0.8"/>
      </g>
     </g>
     <g id="text_4">
      <!-- 15 -->
      <g style="fill: #c6c8cb" transform="translate(266.918139 398.600312) scale(0.1 -0.1)">
       <use xlink:href="#DINPro-Bold-31"/>
       <use xlink:href="#DINPro-Bold-35" x="54.299988"/>
      </g>
     </g>
    </g>
    <g id="xtick_5">
     <g id="line2d_5">
      <g>
       <use xlink:href="#mfd3f7934fb" x="345.130435" y="384.48" style="fill: #c6c8cb; stroke: #c6c8cb; stroke-width: 0.8"/>
      </g>
     </g>
     <g id="text_5">
      <!-- 20 -->
      <g style="fill: #c6c8cb" transform="translate(339.700747 398.600312) scale(0.1 -0.1)">
       <defs>
        <path id="DINPro-Bold-32" d="M 3149 0 
L 3149 749 
L 1389 749 
L 2662 2227 
C 2976 2592 3149 2829 3149 3270 
C 3149 4090 2573 4595 1766 4595 
C 986 4595 378 4096 378 3264 
L 1210 3264 
C 1210 3706 1491 3846 1766 3846 
C 2118 3846 2317 3616 2317 3277 
C 2317 3066 2246 2925 2080 2726 
L 378 749 
L 378 0 
L 3149 0 
z
" transform="scale(0.015625)"/>
       </defs>
       <use xlink:href="#DINPro-Bold-32"/>
       <use xlink:href="#DINPro-Bold-30" x="54.299988"/>
      </g>
     </g>
    </g>
    <g id="text_6">
     <!-- P(q) -->
     <g style="fill: #c6c8cb" transform="translate(212.096094 418.569063) scale(0.1 -0.1)">
      <defs>
       <path id="DINPro-Bold-50" d="M 3802 3136 
C 3802 3910 3238 4557 2298 4557 
L 531 4557 
L 531 0 
L 1421 0 
L 1421 1715 
L 2298 1715 
C 3238 1715 3802 2362 3802 3136 
z
M 2912 3136 
C 2912 2765 2656 2515 2253 2515 
L 1421 2515 
L 1421 3763 
L 2253 3763 
C 2656 3763 2912 3507 2912 3136 
z
" transform="scale(0.015625)"/>
       <path id="DINPro-Bold-28" d="M 1798 -45 
C 1645 109 1549 198 1440 384 
C 1376 499 1344 678 1344 922 
L 1344 3635 
C 1344 3878 1376 4058 1440 4173 
C 1549 4358 1645 4448 1798 4602 
L 1242 5158 
C 1030 4947 826 4749 678 4499 
C 531 4243 512 3955 512 3674 
L 512 883 
C 512 602 531 314 678 58 
C 826 -192 1030 -390 1242 -602 
L 1798 -45 
z
" transform="scale(0.015625)"/>
       <path id="DINPro-Bold-71" d="M 3123 -1222 
L 3123 3334 
L 2310 3334 
L 2310 3021 
C 2080 3277 1837 3373 1485 3373 
C 1158 3373 851 3258 666 3072 
C 333 2739 326 2170 326 1670 
C 326 1171 333 595 666 262 
C 851 77 1152 -38 1478 -38 
C 1818 -38 2074 51 2291 294 
L 2291 -1222 
L 3123 -1222 
z
M 2291 1670 
C 2291 1126 2221 710 1722 710 
C 1222 710 1158 1126 1158 1670 
C 1158 2214 1222 2624 1722 2624 
C 2221 2624 2291 2214 2291 1670 
z
" transform="scale(0.015625)"/>
       <path id="DINPro-Bold-29" d="M 1638 883 
L 1638 3674 
C 1638 3955 1619 4243 1472 4499 
C 1325 4749 1120 4947 909 5158 
L 346 4595 
C 499 4442 595 4358 704 4173 
C 768 4058 800 3878 800 3635 
L 800 922 
C 800 678 768 499 704 384 
C 595 198 499 115 346 -38 
L 909 -602 
C 1120 -390 1325 -192 1472 58 
C 1619 314 1638 602 1638 883 
z
" transform="scale(0.015625)"/>
      </defs>
      <use xlink:href="#DINPro-Bold-50"/>
      <use xlink:href="#DINPro-Bold-28" x="62.799988"/>
      <use xlink:href="#DINPro-Bold-71" x="96.399979"/>
      <use xlink:href="#DINPro-Bold-29" x="152.499969"/>
     </g>
    </g>
   </g>
   <g id="matplotlib.axis_2">
    <g id="ytick_1">
     <g id="line2d_6">
      <defs>
       <path id="m3e50a24f27" d="M 0 0 
L -3.5 0 
" style="stroke: #c6c8cb; stroke-width: 0.8"/>
      </defs>
      <g>
       <use xlink:href="#m3e50a24f27" x="54" y="384.48" style="fill: #c6c8cb; stroke: #c6c8cb; stroke-width: 0.8"/>
      </g>
     </g>
     <g id="text_7">
      <!-- 0.00 -->
      <g style="fill: #c6c8cb" transform="translate(27.860937 388.040156) scale(0.1 -0.1)">
       <defs>
        <path id="DINPro-Bold-2e" d="M 1389 0 
L 1389 947 
L 435 947 
L 435 0 
L 1389 0 
z
" transform="scale(0.015625)"/>
       </defs>
       <use xlink:href="#DINPro-Bold-30"/>
       <use xlink:href="#DINPro-Bold-2e" x="54.299988"/>
       <use xlink:href="#DINPro-Bold-30" x="82.799973"/>
       <use xlink:href="#DINPro-Bold-30" x="137.09996"/>
      </g>
     </g>
    </g>
    <g id="ytick_2">
     <g id="line2d_7">
      <g>
       <use xlink:href="#m3e50a24f27" x="54" y="329.04" style="fill: #c6c8cb; stroke: #c6c8cb; stroke-width: 0.8"/>
      </g>
     </g>
     <g id="text_8">
      <!-- 0.05 -->
      <g style="fill: #c6c8cb" transform="translate(27.860937 332.600156) scale(0.1 -0.1)">
       <use xlink:href="#DINPro-Bold-30"/>
       <use xlink:href="#DINPro-Bold-2e" x="54.299988"/>
       <use xlink:href="#DINPro-Bold-30" x="82.799973"/>
       <use xlink:href="#DINPro-Bold-35" x="137.09996"/>
      </g>
     </g>
    </g>
    <g id="ytick_3">
     <g id="line2d_8">
      <g>
       <use xlink:href="#m3e50a24f27" x="54" y="273.6" style="fill: #c6c8cb; stroke: #c6c8cb; stroke-width: 0.8"/>
      </g>
     </g>
     <g id="text_9">
      <!-- 0.10 -->
      <g style="fill: #c6c8cb" transform="translate(27.860937 277.160156) scale(0.1 -0.1)">
       <use xlink:href="#DINPro-Bold-30"/>
       <use xlink:href="#DINPro-Bold-2e" x="54.299988"/>
       <use xlink:href="#DINPro-Bold-31" x="82.799973"/>
       <use xlink:href="#DINPro-Bold-30" x="137.09996"/>
      </g>
     </g>
    </g>
    <g id="ytick_4">
     <g id="line2d_9">
      <g>
       <use xlink:href="#m3e50a24f27" x="54" y="218.16" style="fill: #c6c8cb; stroke: #c6c8cb; stroke-width: 0.8"/>
      </g>
     </g>
     <g id="text_10">
      <!-- 0.15 -->
      <g style="fill: #c6c8cb" transform="translate(27.860937 221.720156) scale(0.1 -0.1)">
       <use xlink:href="#DINPro-Bold-30"/>
       <use xlink:href="#DINPro-Bold-2e" x="54.299988"/>
       <use xlink:href="#DINPro-Bold-31" x="82.799973"/>
       <use xlink:href="#DINPro-Bold-35" x="137.09996"/>
      </g>
     </g>
    </g>
    <g id="ytick_5">
     <g id="line2d_10">
      <g>
       <use xlink:href="#m3e50a24f27" x="54" y="162.72" style="fill: #c6c8cb; stroke: #c6c8cb; stroke-width: 0.8"/>
      </g>
     </g>
     <g id="text_11">
      <!-- 0.20 -->
      <g style="fill: #c6c8cb" transform="translate(27.860937 166.280156) scale(0.1 -0.1)">
       <use xlink:href="#DINPro-Bold-30"/>
       <use xlink:href="#DINPro-Bold-2e" x="54.299988"/>
       <use xlink:href="#DINPro-Bold-32" x="82.799973"/>
       <use xlink:href="#DINPro-Bold-30" x="137.09996"/>
      </g>
     </g>
    </g>
    <g id="ytick_6">
     <g id="line2d_11">
      <g>
       <use xlink:href="#m3e50a24f27" x="54" y="107.28" style="fill: #c6c8cb; stroke: #c6c8cb; stroke-width: 0.8"/>
      </g>
     </g>
     <g id="text_12">
      <!-- 0.25 -->
      <g style="fill: #c6c8cb" transform="translate(27.860937 110.840156) scale(0.1 -0.1)">
       <use xlink:href="#DINPro-Bold-30"/>
       <use xlink:href="#DINPro-Bold-2e" x="54.299988"/>
       <use xlink:href="#DINPro-Bold-32" x="82.799973"/>
       <use xlink:href="#DINPro-Bold-35" x="137.09996"/>
      </g>
     </g>
    </g>
    <g id="ytick_7">
     <g id="line2d_12">
      <g>
       <use xlink:href="#m3e50a24f27" x="54" y="51.84" style="fill: #c6c8cb; stroke: #c6c8cb; stroke-width: 0.8"/>
      </g>
     </g>
     <g id="text_13">
      <!-- 0.30 -->
      <g style="fill: #c6c8cb" transform="translate(27.860937 55.400156) scale(0.1 -0.1)">
       <defs>
        <path id="DINPro-Bold-33" d="M 3168 1318 
C 3168 1869 2906 2182 2579 2355 
C 2880 2515 3104 2797 3104 3290 
C 3104 4058 2522 4595 1715 4595 
C 947 4595 339 4109 320 3296 
L 1152 3296 
C 1171 3642 1402 3846 1715 3846 
C 2016 3846 2272 3648 2272 3264 
C 2272 2944 2099 2694 1696 2694 
L 1574 2694 
L 1574 1971 
L 1696 1971 
C 2106 1971 2336 1722 2336 1344 
C 2336 934 2080 710 1722 710 
C 1395 710 1114 896 1101 1306 
L 269 1306 
C 282 352 979 -38 1722 -38 
C 2502 -38 3168 410 3168 1318 
z
" transform="scale(0.015625)"/>
       </defs>
       <use xlink:href="#DINPro-Bold-30"/>
       <use xlink:href="#DINPro-Bold-2e" x="54.299988"/>
       <use xlink:href="#DINPro-Bold-33" x="82.799973"/>
       <use xlink:href="#DINPro-Bold-30" x="137.09996"/>
      </g>
     </g>
    </g>
    <g id="text_14">
     <!-- q -->
     <g style="fill: #c6c8cb" transform="translate(15.05625 216.250625) scale(0.1 -0.1)">
      <use xlink:href="#DINPro-Bold-71"/>
     </g>
    </g>
   </g>
   <g id="line2d_13">
    <path d="M 54 353.089332 
L 77.896592 351.520147 
L 99.170388 349.905326 
L 118.112808 348.248112 
L 135.015276 346.548872 
L 150.169213 344.803027 
L 163.574618 343.039374 
L 175.522914 341.251695 
L 186.305523 339.422669 
L 196.213866 337.519656 
L 205.247944 335.556501 
L 213.407756 333.554028 
L 220.693302 331.541531 
L 227.396005 329.462472 
L 233.515864 327.333408 
L 239.052879 325.177737 
L 244.298472 322.892945 
L 248.961222 320.623601 
L 253.33255 318.251092 
L 257.412456 315.780099 
L 261.20094 313.219205 
L 264.698002 310.581991 
L 267.903643 307.88825 
L 270.817861 305.165245 
L 273.73208 302.129505 
L 276.354877 299.076748 
L 278.977673 295.657207 
L 281.309048 292.245678 
L 283.640423 288.408225 
L 285.680376 284.625793 
L 287.720329 280.358276 
L 289.46886 276.229344 
L 291.217391 271.566738 
L 292.965922 266.244607 
L 294.714454 260.091204 
L 296.171563 254.156943 
L 297.628672 247.283338 
L 299.085781 239.193176 
L 300.251469 231.577844 
L 301.417156 222.624022 
L 302.582844 211.887249 
L 303.748531 198.684566 
L 304.622797 186.518896 
L 305.497062 171.600733 
L 306.371328 152.706203 
L 307.245593 127.68299 
L 307.828437 105.661845 
L 308.411281 76.790695 
L 308.994125 36.576548 
L 309.37395 -1 
L 309.37395 -1 
" clip-path="url(#p4b7aeb01a1)" style="fill: none; stroke: #eba62a; stroke-width: 1.5; stroke-linecap: square"/>
   </g>
   <g id="line2d_14">
    <path d="M 54 384.48 
L 54.291422 384.036599 
L 54.582844 382.718905 
L 55.165687 377.632687 
L 55.748531 369.789321 
L 56.914219 349.531856 
L 58.079906 330.679353 
L 58.66275 324.432941 
L 58.954172 322.449928 
L 59.245593 321.306342 
L 59.537015 321.032854 
L 59.828437 321.636019 
L 60.119859 323.098173 
L 60.702703 328.411652 
L 61.285546 336.384602 
L 62.742656 361.755973 
L 63.616921 375.176869 
L 64.199765 381.257756 
L 64.491187 383.164218 
L 64.782609 384.238619 
L 65.074031 384.451844 
L 65.365452 383.798117 
L 65.656874 382.295086 
L 66.239718 376.92496 
L 66.822562 368.915404 
L 67.988249 348.57955 
L 69.153937 329.684996 
L 69.73678 323.320419 
L 70.028202 321.242923 
L 70.319624 319.98083 
L 70.611046 319.566537 
L 70.902468 320.00997 
L 71.19389 321.298388 
L 71.776733 326.248897 
L 72.359577 333.892557 
L 73.525264 353.847216 
L 74.690952 373.038538 
L 75.273796 379.815605 
L 75.856639 383.703953 
L 76.148061 384.426687 
L 76.439483 384.303064 
L 76.730905 383.336265 
L 77.022327 381.551189 
L 77.60517 375.729602 
L 78.479436 362.610382 
L 80.519389 328.164253 
L 81.102233 321.826485 
L 81.685076 318.442532 
L 81.976498 317.974592 
L 82.26792 318.34395 
L 82.559342 319.540257 
L 83.142186 324.269369 
L 83.725029 331.682615 
L 84.599295 346.152684 
L 86.056404 371.016933 
L 86.639248 378.339978 
L 87.222092 382.978229 
L 87.513514 384.136642 
L 87.804935 384.476735 
L 88.096357 383.990149 
L 88.387779 382.688806 
L 88.970623 377.788329 
L 89.553467 370.250825 
L 90.427732 355.647123 
L 91.884841 330.494291 
L 92.467685 322.965672 
L 93.050529 318.053359 
L 93.341951 316.733497 
L 93.633373 316.218098 
L 93.924794 316.518405 
L 94.216216 317.626163 
L 94.507638 319.513872 
L 95.090482 325.42771 
L 95.964747 338.468676 
L 98.0047 372.921734 
L 98.587544 379.613154 
L 99.170388 383.556677 
L 99.46181 384.372379 
L 99.753231 384.385938 
L 100.044653 383.59703 
L 100.336075 382.023955 
L 100.918919 376.688274 
L 101.501763 368.868965 
L 102.66745 348.801359 
L 103.833137 328.960696 
L 104.415981 321.391891 
L 104.998825 316.350996 
L 105.290247 314.928333 
L 105.581669 314.284684 
L 105.87309 314.433487 
L 106.164512 315.370266 
L 106.455934 317.072796 
L 107.038778 322.601212 
L 107.621622 330.516717 
L 108.787309 350.513363 
L 109.952996 370.081845 
L 110.53584 377.511312 
L 111.118684 382.443813 
L 111.410106 383.828689 
L 111.701528 384.446624 
L 111.992949 384.284052 
L 112.284371 383.344526 
L 112.575793 381.648578 
L 113.158637 376.151021 
L 113.741481 368.267091 
L 114.907168 348.203248 
L 116.072855 328.187213 
L 116.655699 320.34529 
L 117.238543 314.877753 
L 117.529965 313.185999 
L 117.821387 312.240548 
L 118.112808 312.06036 
L 118.40423 312.648108 
L 118.695652 313.990183 
L 119.278496 318.80389 
L 119.86134 326.088463 
L 120.735605 340.252889 
L 122.484136 370.092947 
L 123.06698 377.435273 
L 123.649824 382.347017 
L 123.941246 383.756222 
L 124.232667 384.423999 
L 124.524089 384.336604 
L 124.815511 383.495824 
L 125.106933 381.918878 
L 125.689777 376.699733 
L 126.27262 369.102391 
L 127.438308 349.367564 
L 128.895417 324.473998 
L 129.478261 317.010858 
L 130.061105 311.931336 
L 130.352526 310.417069 
L 130.643948 309.629722 
L 130.93537 309.583742 
L 131.226792 310.278848 
L 131.518214 311.700092 
L 132.101058 316.590295 
L 132.683901 323.861856 
L 133.558167 337.933403 
L 135.306698 368.03491 
L 136.180964 378.842783 
L 136.763807 383.059349 
L 137.055229 384.131062 
L 137.346651 384.479823 
L 137.638073 384.098954 
L 137.929495 382.995718 
L 138.512338 378.71944 
L 139.095182 371.973958 
L 139.969448 358.376901 
L 142.300823 318.849249 
L 142.883666 312.211904 
L 143.46651 308.029296 
L 143.757932 306.959497 
L 144.049354 306.599604 
L 144.340776 306.954994 
L 144.632197 308.017907 
L 145.215041 312.170986 
L 145.797885 318.747349 
L 146.67215 332.05479 
L 149.003525 371.326455 
L 149.586369 378.149062 
L 150.169213 382.628254 
L 150.460635 383.882816 
L 150.752056 384.447113 
L 151.043478 384.311176 
L 151.3349 383.477392 
L 151.626322 381.960408 
L 152.209166 376.994641 
L 152.792009 369.759258 
L 153.666275 355.780469 
L 155.99765 316.193812 
L 156.580494 309.442016 
L 157.163337 305.017878 
L 157.454759 303.775856 
L 157.746181 303.210569 
L 158.037603 303.330266 
L 158.329025 304.131635 
L 158.620447 305.599912 
L 159.20329 310.422861 
L 159.786134 317.467976 
L 160.6604 331.12742 
L 162.991774 370.423473 
L 163.574618 377.367691 
L 164.157462 382.1044 
L 164.448884 383.542985 
L 164.740306 384.327287 
L 165.031727 384.444656 
L 165.323149 383.893196 
L 165.614571 382.681748 
L 166.197415 378.366578 
L 166.780259 371.773012 
L 167.654524 358.554012 
L 170.568743 309.918071 
L 171.151586 303.903883 
L 171.73443 300.212172 
L 172.025852 299.310634 
L 172.317274 299.058517 
L 172.608696 299.458313 
L 172.900118 300.502564 
L 173.482961 304.446009 
L 174.065805 310.640177 
L 174.940071 323.284049 
L 178.145711 375.214462 
L 178.728555 380.644036 
L 179.311398 383.766548 
L 179.60282 384.400423 
L 179.894242 384.40076 
L 180.185664 383.767547 
L 180.477086 382.5099 
L 181.059929 378.202198 
L 181.642773 371.723108 
L 182.517039 358.764341 
L 185.722679 305.27062 
L 186.305523 299.246515 
L 186.888367 295.409795 
L 187.179788 294.37878 
L 187.47121 293.958927 
L 187.762632 294.154512 
L 188.054054 294.961432 
L 188.345476 296.367315 
L 188.92832 300.886543 
L 189.511163 307.458668 
L 190.385429 320.350894 
L 193.591069 372.889035 
L 194.173913 378.894923 
L 194.756757 382.811786 
L 195.048179 383.919482 
L 195.3396 384.438641 
L 195.631022 384.362633 
L 195.922444 383.692418 
L 196.213866 382.436488 
L 196.79671 378.238071 
L 197.379553 371.977754 
L 198.253819 359.426887 
L 199.710928 333.69482 
L 201.168038 308.705123 
L 202.042303 297.188873 
L 202.625147 291.760525 
L 203.207991 288.433929 
L 203.499412 287.608562 
L 203.790834 287.355053 
L 204.082256 287.674847 
L 204.373678 288.562625 
L 204.956522 291.987745 
L 205.539365 297.458546 
L 206.413631 308.89739 
L 207.579318 328.2079 
L 209.619271 362.970019 
L 210.493537 374.296797 
L 211.076381 379.727085 
L 211.659224 383.168699 
L 211.950646 384.092866 
L 212.242068 384.470477 
L 212.53349 384.297414 
L 212.824912 383.575549 
L 213.116334 382.312686 
L 213.699177 378.224 
L 214.282021 372.206003 
L 215.156287 360.138938 
L 216.321974 340.212463 
L 218.361927 304.14524 
L 219.236193 291.859278 
L 219.819036 285.601389 
L 220.40188 281.178974 
L 220.984724 278.755878 
L 221.276146 278.323229 
L 221.567568 278.415033 
L 221.858989 279.028687 
L 222.150411 280.156464 
L 222.733255 283.898611 
L 223.316099 289.482822 
L 224.190364 300.796844 
L 225.356052 319.730629 
L 227.687427 359.56551 
L 228.561692 371.307637 
L 229.144536 377.306652 
L 229.72738 381.579509 
L 230.310223 383.972208 
L 230.601645 384.434026 
L 230.893067 384.399209 
L 231.184489 383.86806 
L 231.475911 382.845249 
L 232.058754 379.364636 
L 232.641598 374.078088 
L 233.515864 363.17461 
L 234.681551 344.436643 
L 238.178613 284.170365 
L 239.052879 273.901282 
L 239.635723 269.019794 
L 240.218566 265.880508 
L 240.509988 264.992468 
L 240.80141 264.566712 
L 241.092832 264.604625 
L 241.384254 265.103995 
L 241.675676 266.059069 
L 242.258519 269.29611 
L 242.841363 274.202582 
L 243.715629 284.325909 
L 244.881316 301.812371 
L 248.6698 364.266145 
L 249.544066 374.294172 
L 250.12691 379.219602 
L 250.709753 382.575083 
L 251.001175 383.634202 
L 251.292597 384.270569 
L 251.584019 384.479973 
L 251.875441 384.261035 
L 252.166863 383.615179 
L 252.749706 381.062164 
L 253.33255 376.886347 
L 253.915394 371.193478 
L 254.789659 360.13008 
L 255.955347 341.652898 
L 257.9953 304.182727 
L 259.743831 273.608545 
L 260.909518 257.201904 
L 261.783784 247.988174 
L 262.366627 243.552049 
L 262.949471 240.576608 
L 263.240893 239.652056 
L 263.532315 239.107063 
L 263.823737 238.942166 
L 264.115159 239.155896 
L 264.40658 239.744814 
L 264.989424 242.024914 
L 265.572268 245.717636 
L 266.155112 250.730654 
L 267.029377 260.46359 
L 268.195065 276.797244 
L 269.943596 305.661048 
L 272.274971 344.38295 
L 273.440658 360.630697 
L 274.314924 370.474155 
L 275.189189 377.88957 
L 275.772033 381.346056 
L 276.354877 383.545849 
L 276.646298 384.162986 
L 276.93772 384.454709 
L 277.229142 384.419911 
L 277.520564 384.058719 
L 277.811986 383.372467 
L 278.39483 381.035966 
L 278.977673 377.443944 
L 279.560517 372.646862 
L 280.434783 363.339668 
L 281.309048 351.750971 
L 282.474736 333.334068 
L 284.223267 301.213308 
L 288.886016 211.922078 
L 290.343126 189.114454 
L 291.508813 174.03765 
L 292.674501 162.143628 
L 293.548766 155.423737 
L 294.423032 150.618973 
L 295.005875 148.472214 
L 295.588719 147.154577 
L 295.880141 146.800305 
L 296.171563 146.644906 
L 296.462985 146.684825 
L 296.754407 146.916182 
L 297.33725 147.936205 
L 297.920094 149.668298 
L 298.502938 152.071998 
L 299.377203 156.840832 
L 300.251469 162.865549 
L 301.417156 172.567686 
L 302.874266 186.820347 
L 304.914219 209.393362 
L 311.325499 282.477381 
L 313.365452 302.369148 
L 315.113984 317.359722 
L 316.862515 330.364036 
L 318.319624 339.709332 
L 319.776733 347.768045 
L 321.233843 354.634021 
L 322.690952 360.417651 
L 324.148061 365.237319 
L 325.60517 369.21268 
L 327.06228 372.459637 
L 328.519389 375.086834 
L 329.976498 377.193432 
L 331.433608 378.867934 
L 332.890717 380.187808 
L 334.347826 381.219709 
L 336.096357 382.156721 
L 337.844888 382.840009 
L 339.884841 383.400292 
L 342.507638 383.860418 
L 345.130435 384.131376 
L 345.130435 384.131376 
" clip-path="url(#p4b7aeb01a1)" style="fill: none; stroke: #eb892a; stroke-width: 1.5; stroke-linecap: square"/>
   </g>
   <g id="patch_3">
    <path d="M 54 384.48 
L 54 51.84 
" style="fill: none; stroke: #c6c8cb; stroke-width: 0.8; stroke-linejoin: miter; stroke-linecap: square"/>
   </g>
   <g id="patch_4">
    <path d="M 388.8 384.48 
L 388.8 51.84 
" style="fill: none; stroke: #c6c8cb; stroke-width: 0.8; stroke-linejoin: miter; stroke-linecap: square"/>
   </g>
   <g id="patch_5">
    <path d="M 54 384.48 
L 388.8 384.48 
" style="fill: none; stroke: #c6c8cb; stroke-width: 0.8; stroke-linejoin: miter; stroke-linecap: square"/>
   </g>
   <g id="patch_6">
    <path d="M 54 51.84 
L 388.8 51.84 
" style="fill: none; stroke: #c6c8cb; stroke-width: 0.8; stroke-linejoin: miter; stroke-linecap: square"/>
   </g>
   <g id="text_15">
    <!-- Classical -->
    <g style="fill: #eba62a" transform="translate(316.017391 65.533469) scale(0.1 -0.1)">
     <defs>
      <path id="DINPro-Bold-43" d="M 3731 1402 
L 2829 1402 
C 2733 1011 2490 755 2061 755 
C 1818 755 1626 832 1491 992 
C 1306 1190 1267 1395 1267 2278 
C 1267 3162 1306 3366 1491 3565 
C 1626 3725 1818 3802 2061 3802 
C 2490 3802 2733 3546 2829 3155 
L 3731 3155 
C 3578 4083 2931 4595 2054 4595 
C 1568 4595 1158 4429 826 4096 
C 627 3898 506 3674 454 3411 
C 403 3155 378 2778 378 2278 
C 378 1779 403 1402 454 1146 
C 506 890 627 659 826 461 
C 1158 128 1568 -38 2054 -38 
C 2925 -38 3578 474 3731 1402 
z
" transform="scale(0.015625)"/>
      <path id="DINPro-Bold-6c" d="M 1882 0 
L 1882 704 
L 1562 704 
C 1350 704 1267 806 1267 1005 
L 1267 4557 
L 435 4557 
L 435 954 
C 435 480 723 0 1408 0 
L 1882 0 
z
" transform="scale(0.015625)"/>
      <path id="DINPro-Bold-61" d="M 2989 0 
L 2989 2195 
C 2989 2976 2502 3373 1568 3373 
C 1011 3373 691 3270 365 2912 
L 896 2394 
C 1069 2592 1216 2669 1536 2669 
C 1978 2669 2157 2509 2157 2144 
L 2157 1978 
L 1370 1978 
C 595 1978 230 1542 230 1011 
C 230 717 326 448 506 262 
C 704 64 979 -32 1357 -32 
C 1741 -32 1952 64 2176 288 
L 2176 0 
L 2989 0 
z
M 2157 1229 
C 2157 1024 2125 890 2035 806 
C 1888 666 1741 646 1510 646 
C 1184 646 1030 800 1030 1030 
C 1030 1267 1197 1408 1498 1408 
L 2157 1408 
L 2157 1229 
z
" transform="scale(0.015625)"/>
      <path id="DINPro-Bold-73" d="M 2976 1050 
C 2976 1613 2643 1965 1984 2029 
L 1459 2080 
C 1165 2106 1114 2246 1114 2368 
C 1114 2534 1254 2688 1587 2688 
C 1875 2688 2170 2637 2362 2464 
L 2874 2982 
C 2554 3283 2118 3373 1600 3373 
C 922 3373 314 3002 314 2310 
C 314 1696 685 1434 1286 1376 
L 1811 1325 
C 2074 1299 2163 1184 2163 1018 
C 2163 768 1862 672 1574 672 
C 1318 672 960 710 685 986 
L 141 442 
C 563 19 1037 -38 1562 -38 
C 2349 -38 2976 314 2976 1050 
z
" transform="scale(0.015625)"/>
      <path id="DINPro-Bold-69" d="M 1299 0 
L 1299 3334 
L 467 3334 
L 467 0 
L 1299 0 
z
M 1306 3904 
L 1306 4582 
L 454 4582 
L 454 3904 
L 1306 3904 
z
" transform="scale(0.015625)"/>
      <path id="DINPro-Bold-63" d="M 2893 416 
L 2330 973 
C 2157 787 2010 710 1792 710 
C 1594 710 1440 781 1318 928 
C 1190 1088 1133 1318 1133 1670 
C 1133 2022 1190 2246 1318 2406 
C 1440 2554 1594 2624 1792 2624 
C 2010 2624 2157 2547 2330 2362 
L 2893 2925 
C 2598 3232 2253 3373 1792 3373 
C 1126 3373 301 3021 301 1670 
C 301 320 1126 -38 1792 -38 
C 2253 -38 2598 109 2893 416 
z
" transform="scale(0.015625)"/>
     </defs>
     <use xlink:href="#DINPro-Bold-43"/>
     <use xlink:href="#DINPro-Bold-6c" x="61.999985"/>
     <use xlink:href="#DINPro-Bold-61" x="94.499969"/>
     <use xlink:href="#DINPro-Bold-73" x="147.899963"/>
     <use xlink:href="#DINPro-Bold-73" x="197.999954"/>
     <use xlink:href="#DINPro-Bold-69" x="248.099945"/>
     <use xlink:href="#DINPro-Bold-63" x="275.59993"/>
     <use xlink:href="#DINPro-Bold-61" x="323.599915"/>
     <use xlink:href="#DINPro-Bold-6c" x="376.999908"/>
    </g>
   </g>
   <g id="text_16">
    <!-- Quantum -->
    <g style="fill: #eb892a" transform="translate(337.852174 375.997469) scale(0.1 -0.1)">
     <defs>
      <path id="DINPro-Bold-51" d="M 3853 275 
L 3462 666 
C 3750 1088 3744 1594 3744 2278 
C 3744 3066 3750 3635 3290 4096 
C 2970 4416 2579 4595 2061 4595 
C 1542 4595 1146 4416 826 4096 
C 365 3635 378 3066 378 2278 
C 378 1491 365 922 826 461 
C 1146 141 1542 -38 2061 -38 
C 2419 -38 2726 45 2982 211 
L 3386 -192 
L 3853 275 
z
M 2854 2278 
C 2854 1818 2842 1555 2771 1357 
L 2432 1696 
L 1958 1229 
L 2355 838 
C 2272 781 2170 755 2061 755 
C 1818 755 1613 851 1485 998 
C 1312 1190 1267 1402 1267 2278 
C 1267 3155 1312 3366 1485 3558 
C 1613 3706 1818 3802 2061 3802 
C 2304 3802 2502 3706 2630 3558 
C 2803 3366 2854 3155 2854 2278 
z
" transform="scale(0.015625)"/>
      <path id="DINPro-Bold-75" d="M 3200 0 
L 3200 3334 
L 2368 3334 
L 2368 1318 
C 2368 864 2074 710 1811 710 
C 1549 710 1261 864 1261 1318 
L 1261 3334 
L 429 3334 
L 429 1203 
C 429 838 499 525 768 256 
C 954 70 1222 -38 1555 -38 
C 1862 -38 2170 77 2387 307 
L 2387 0 
L 3200 0 
z
" transform="scale(0.015625)"/>
      <path id="DINPro-Bold-6e" d="M 3238 0 
L 3238 2131 
C 3238 2496 3168 2810 2899 3078 
C 2714 3264 2445 3373 2112 3373 
C 1805 3373 1498 3258 1280 3027 
L 1280 3334 
L 467 3334 
L 467 0 
L 1299 0 
L 1299 2016 
C 1299 2470 1594 2624 1856 2624 
C 2118 2624 2406 2470 2406 2016 
L 2406 0 
L 3238 0 
z
" transform="scale(0.015625)"/>
      <path id="DINPro-Bold-74" d="M 1965 0 
L 1965 704 
L 1664 704 
C 1466 704 1376 813 1376 1005 
L 1376 2605 
L 1965 2605 
L 1965 3238 
L 1376 3238 
L 1376 4224 
L 544 4224 
L 544 3238 
L 192 3238 
L 192 2605 
L 544 2605 
L 544 954 
C 544 480 832 0 1510 0 
L 1965 0 
z
" transform="scale(0.015625)"/>
      <path id="DINPro-Bold-6d" d="M 5178 0 
L 5178 2131 
C 5178 2496 5082 2810 4813 3078 
C 4627 3264 4326 3373 3994 3373 
C 3578 3373 3277 3245 2995 2950 
C 2784 3238 2483 3373 2112 3373 
C 1805 3373 1498 3251 1280 3027 
L 1280 3334 
L 467 3334 
L 467 0 
L 1299 0 
L 1299 2016 
C 1299 2470 1594 2624 1856 2624 
C 2118 2624 2406 2470 2406 2016 
L 2406 0 
L 3238 0 
L 3238 2035 
C 3238 2470 3539 2624 3795 2624 
C 4058 2624 4346 2470 4346 2016 
L 4346 0 
L 5178 0 
z
" transform="scale(0.015625)"/>
     </defs>
     <use xlink:href="#DINPro-Bold-51"/>
     <use xlink:href="#DINPro-Bold-75" x="64.299988"/>
     <use xlink:href="#DINPro-Bold-61" x="121.599976"/>
     <use xlink:href="#DINPro-Bold-6e" x="174.999969"/>
     <use xlink:href="#DINPro-Bold-74" x="232.299957"/>
     <use xlink:href="#DINPro-Bold-75" x="267.499954"/>
     <use xlink:href="#DINPro-Bold-6d" x="324.799942"/>
    </g>
   </g>
   <g id="text_17">
    <!-- A quantum particle in a gravitational field -->
    <g style="fill: #c6c8cb" transform="translate(108.394688 23.243175) scale(0.12 -0.12)">
     <defs>
      <path id="DINPro-Bold-41" d="M 4051 0 
L 2387 4557 
L 1690 4557 
L 32 0 
L 960 0 
L 1235 806 
L 2854 806 
L 3123 0 
L 4051 0 
z
M 2618 1555 
L 1485 1555 
L 2061 3213 
L 2618 1555 
z
" transform="scale(0.015625)"/>
      <path id="DINPro-Bold-20" transform="scale(0.015625)"/>
      <path id="DINPro-Bold-70" d="M 3258 1670 
C 3258 2170 3251 2739 2918 3072 
C 2733 3258 2432 3373 2106 3373 
C 1754 3373 1504 3277 1274 3021 
L 1274 3334 
L 467 3334 
L 467 -1222 
L 1299 -1222 
L 1299 294 
C 1517 51 1766 -38 2106 -38 
C 2432 -38 2733 77 2918 262 
C 3251 595 3258 1171 3258 1670 
z
M 2426 1670 
C 2426 1126 2362 710 1862 710 
C 1363 710 1299 1126 1299 1670 
C 1299 2214 1363 2624 1862 2624 
C 2362 2624 2426 2214 2426 1670 
z
" transform="scale(0.015625)"/>
      <path id="DINPro-Bold-72" d="M 2906 3059 
C 2675 3290 2445 3373 2118 3373 
C 1760 3373 1440 3206 1280 3014 
L 1280 3334 
L 467 3334 
L 467 0 
L 1299 0 
L 1299 2010 
C 1299 2432 1581 2624 1837 2624 
C 2042 2624 2150 2554 2278 2426 
L 2906 3059 
z
" transform="scale(0.015625)"/>
      <path id="DINPro-Bold-65" d="M 3206 1408 
L 3206 1779 
C 3206 2694 2682 3373 1754 3373 
C 890 3373 301 2758 301 1670 
C 301 320 1056 -38 1843 -38 
C 2445 -38 2771 147 3110 486 
L 2605 979 
C 2394 768 2214 666 1850 666 
C 1382 666 1120 979 1120 1408 
L 3206 1408 
z
M 2387 1978 
L 1120 1978 
C 1126 2125 1146 2214 1197 2336 
C 1286 2534 1472 2682 1754 2682 
C 2035 2682 2221 2534 2310 2336 
C 2362 2214 2381 2125 2387 1978 
z
" transform="scale(0.015625)"/>
      <path id="DINPro-Bold-67" d="M 3085 122 
L 3085 3334 
L 2278 3334 
L 2278 3021 
C 2048 3277 1818 3373 1466 3373 
C 1139 3373 851 3264 666 3078 
C 352 2765 326 2342 326 1760 
C 326 1178 352 749 666 435 
C 851 250 1133 141 1459 141 
C 1786 141 2035 230 2253 474 
L 2253 134 
C 2253 -205 2080 -557 1581 -557 
C 1299 -557 1114 -480 928 -301 
L 410 -826 
C 755 -1158 1107 -1261 1619 -1261 
C 2515 -1261 3085 -678 3085 122 
z
M 2253 1760 
C 2253 1318 2195 890 1702 890 
C 1210 890 1158 1318 1158 1760 
C 1158 2202 1210 2624 1702 2624 
C 2195 2624 2253 2202 2253 1760 
z
" transform="scale(0.015625)"/>
      <path id="DINPro-Bold-76" d="M 3130 3334 
L 2253 3334 
L 1581 1274 
L 902 3334 
L 26 3334 
L 1254 0 
L 1907 0 
L 3130 3334 
z
" transform="scale(0.015625)"/>
      <path id="DINPro-Bold-6f" d="M 3149 1670 
C 3149 2272 3072 2650 2771 2963 
C 2566 3181 2227 3373 1734 3373 
C 1242 3373 909 3181 704 2963 
C 403 2650 326 2272 326 1670 
C 326 1062 403 685 704 371 
C 909 154 1242 -38 1734 -38 
C 2227 -38 2566 154 2771 371 
C 3072 685 3149 1062 3149 1670 
z
M 2317 1670 
C 2317 1325 2298 1030 2125 858 
C 2029 762 1901 710 1734 710 
C 1568 710 1446 762 1350 858 
C 1178 1030 1158 1325 1158 1670 
C 1158 2016 1178 2304 1350 2477 
C 1446 2573 1568 2624 1734 2624 
C 1901 2624 2029 2573 2125 2477 
C 2298 2304 2317 2016 2317 1670 
z
" transform="scale(0.015625)"/>
      <path id="DINPro-Bold-66" d="M 2016 2605 
L 2016 3238 
L 1402 3238 
L 1402 3603 
C 1402 3795 1491 3904 1690 3904 
L 2016 3904 
L 2016 4608 
L 1542 4608 
C 864 4608 570 4128 570 3654 
L 570 3238 
L 224 3238 
L 224 2605 
L 570 2605 
L 570 0 
L 1402 0 
L 1402 2605 
L 2016 2605 
z
" transform="scale(0.015625)"/>
      <path id="DINPro-Bold-64" d="M 3123 0 
L 3123 4557 
L 2291 4557 
L 2291 3040 
C 2074 3283 1818 3373 1478 3373 
C 1152 3373 851 3258 666 3072 
C 333 2739 326 2170 326 1670 
C 326 1171 333 595 666 262 
C 851 77 1158 -38 1485 -38 
C 1837 -38 2080 58 2310 314 
L 2310 0 
L 3123 0 
z
M 2291 1670 
C 2291 1126 2221 710 1722 710 
C 1222 710 1158 1126 1158 1670 
C 1158 2214 1222 2624 1722 2624 
C 2221 2624 2291 2214 2291 1670 
z
" transform="scale(0.015625)"/>
     </defs>
     <use xlink:href="#DINPro-Bold-41"/>
     <use xlink:href="#DINPro-Bold-20" x="63.799988"/>
     <use xlink:href="#DINPro-Bold-71" x="86.999985"/>
     <use xlink:href="#DINPro-Bold-75" x="143.099976"/>
     <use xlink:href="#DINPro-Bold-61" x="200.399963"/>
     <use xlink:href="#DINPro-Bold-6e" x="253.799957"/>
     <use xlink:href="#DINPro-Bold-74" x="311.099945"/>
     <use xlink:href="#DINPro-Bold-75" x="346.299942"/>
     <use xlink:href="#DINPro-Bold-6d" x="403.59993"/>
     <use xlink:href="#DINPro-Bold-20" x="491.199921"/>
     <use xlink:href="#DINPro-Bold-70" x="514.399918"/>
     <use xlink:href="#DINPro-Bold-61" x="570.399902"/>
     <use xlink:href="#DINPro-Bold-72" x="623.799896"/>
     <use xlink:href="#DINPro-Bold-74" x="669.299881"/>
     <use xlink:href="#DINPro-Bold-69" x="704.499878"/>
     <use xlink:href="#DINPro-Bold-63" x="731.999863"/>
     <use xlink:href="#DINPro-Bold-6c" x="779.999847"/>
     <use xlink:href="#DINPro-Bold-65" x="812.499832"/>
     <use xlink:href="#DINPro-Bold-20" x="867.29982"/>
     <use xlink:href="#DINPro-Bold-69" x="890.499817"/>
     <use xlink:href="#DINPro-Bold-6e" x="917.999802"/>
     <use xlink:href="#DINPro-Bold-20" x="975.299789"/>
     <use xlink:href="#DINPro-Bold-61" x="998.499786"/>
     <use xlink:href="#DINPro-Bold-20" x="1051.89978"/>
     <use xlink:href="#DINPro-Bold-67" x="1075.099777"/>
     <use xlink:href="#DINPro-Bold-72" x="1130.599762"/>
     <use xlink:href="#DINPro-Bold-61" x="1176.099747"/>
     <use xlink:href="#DINPro-Bold-76" x="1229.499741"/>
     <use xlink:href="#DINPro-Bold-69" x="1278.799728"/>
     <use xlink:href="#DINPro-Bold-74" x="1306.299713"/>
     <use xlink:href="#DINPro-Bold-61" x="1341.49971"/>
     <use xlink:href="#DINPro-Bold-74" x="1394.899704"/>
     <use xlink:href="#DINPro-Bold-69" x="1430.099701"/>
     <use xlink:href="#DINPro-Bold-6f" x="1457.599686"/>
     <use xlink:href="#DINPro-Bold-6e" x="1511.899673"/>
     <use xlink:href="#DINPro-Bold-61" x="1569.199661"/>
     <use xlink:href="#DINPro-Bold-6c" x="1622.599655"/>
     <use xlink:href="#DINPro-Bold-20" x="1655.09964"/>
     <use xlink:href="#DINPro-Bold-66" x="1678.299637"/>
     <use xlink:href="#DINPro-Bold-69" x="1712.499634"/>
     <use xlink:href="#DINPro-Bold-65" x="1739.999619"/>
     <use xlink:href="#DINPro-Bold-6c" x="1794.799606"/>
     <use xlink:href="#DINPro-Bold-64" x="1827.299591"/>
    </g>
    <!-- The Excited State n=16 -->
    <g style="fill: #c6c8cb" transform="translate(159.534375 35.8608) scale(0.12 -0.12)">
     <defs>
      <path id="DINPro-Bold-54" d="M 3462 3763 
L 3462 4557 
L 192 4557 
L 192 3763 
L 1382 3763 
L 1382 0 
L 2272 0 
L 2272 3763 
L 3462 3763 
z
" transform="scale(0.015625)"/>
      <path id="DINPro-Bold-68" d="M 3213 0 
L 3213 2157 
C 3213 2861 2829 3373 2099 3373 
C 1805 3373 1523 3258 1299 3027 
L 1299 4557 
L 467 4557 
L 467 0 
L 1299 0 
L 1299 2035 
C 1299 2470 1574 2624 1837 2624 
C 2099 2624 2381 2477 2381 2035 
L 2381 0 
L 3213 0 
z
" transform="scale(0.015625)"/>
      <path id="DINPro-Bold-45" d="M 3533 0 
L 3533 794 
L 1421 794 
L 1421 1901 
L 3219 1901 
L 3219 2694 
L 1421 2694 
L 1421 3763 
L 3533 3763 
L 3533 4557 
L 531 4557 
L 531 0 
L 3533 0 
z
" transform="scale(0.015625)"/>
      <path id="DINPro-Bold-78" d="M 3296 0 
L 2144 1702 
L 3251 3334 
L 2253 3334 
L 1683 2381 
L 1120 3334 
L 122 3334 
L 1229 1702 
L 77 0 
L 1075 0 
L 1683 998 
L 2298 0 
L 3296 0 
z
" transform="scale(0.015625)"/>
      <path id="DINPro-Bold-53" d="M 3475 1344 
C 3475 1747 3366 2080 3123 2310 
C 2931 2490 2669 2605 2253 2662 
L 1715 2739 
C 1530 2765 1382 2835 1293 2918 
C 1197 3008 1158 3130 1158 3245 
C 1158 3558 1389 3821 1862 3821 
C 2163 3821 2509 3782 2797 3507 
L 3360 4064 
C 2970 4442 2515 4595 1888 4595 
C 902 4595 301 4026 301 3213 
C 301 2829 410 2534 627 2317 
C 832 2118 1120 1997 1510 1939 
L 2061 1862 
C 2272 1830 2374 1786 2464 1702 
C 2560 1613 2605 1478 2605 1318 
C 2605 954 2323 755 1798 755 
C 1376 755 986 851 698 1139 
L 122 563 
C 570 109 1094 -38 1786 -38 
C 2739 -38 3475 461 3475 1344 
z
" transform="scale(0.015625)"/>
      <path id="DINPro-Bold-3d" d="M 3155 2131 
L 3155 2912 
L 320 2912 
L 320 2131 
L 3155 2131 
z
M 3155 742 
L 3155 1523 
L 320 1523 
L 320 742 
L 3155 742 
z
" transform="scale(0.015625)"/>
      <path id="DINPro-Bold-36" d="M 3149 1382 
C 3149 2227 2566 2733 1952 2733 
C 1843 2733 1722 2720 1613 2675 
L 2560 4557 
L 1651 4557 
L 691 2586 
C 486 2170 307 1786 307 1370 
C 307 467 922 -38 1728 -38 
C 2534 -38 3149 486 3149 1382 
z
M 2317 1376 
C 2317 954 2067 710 1728 710 
C 1389 710 1139 954 1139 1376 
C 1139 1798 1389 2042 1728 2042 
C 2080 2042 2317 1779 2317 1376 
z
" transform="scale(0.015625)"/>
     </defs>
     <use xlink:href="#DINPro-Bold-54"/>
     <use xlink:href="#DINPro-Bold-68" x="57.099991"/>
     <use xlink:href="#DINPro-Bold-65" x="113.999985"/>
     <use xlink:href="#DINPro-Bold-20" x="168.799973"/>
     <use xlink:href="#DINPro-Bold-45" x="191.999969"/>
     <use xlink:href="#DINPro-Bold-78" x="252.499954"/>
     <use xlink:href="#DINPro-Bold-63" x="305.199951"/>
     <use xlink:href="#DINPro-Bold-69" x="353.199936"/>
     <use xlink:href="#DINPro-Bold-74" x="380.699921"/>
     <use xlink:href="#DINPro-Bold-65" x="415.899918"/>
     <use xlink:href="#DINPro-Bold-64" x="470.699905"/>
     <use xlink:href="#DINPro-Bold-20" x="526.799896"/>
     <use xlink:href="#DINPro-Bold-53" x="549.999893"/>
     <use xlink:href="#DINPro-Bold-74" x="609.099884"/>
     <use xlink:href="#DINPro-Bold-61" x="644.299881"/>
     <use xlink:href="#DINPro-Bold-74" x="697.699875"/>
     <use xlink:href="#DINPro-Bold-65" x="732.899872"/>
     <use xlink:href="#DINPro-Bold-20" x="787.69986"/>
     <use xlink:href="#DINPro-Bold-6e" x="810.899857"/>
     <use xlink:href="#DINPro-Bold-3d" x="868.199844"/>
     <use xlink:href="#DINPro-Bold-31" x="922.499832"/>
     <use xlink:href="#DINPro-Bold-36" x="976.79982"/>
    </g>
   </g>
  </g>
 </g>
 <defs>
  <clipPath id="p4b7aeb01a1">
   <rect x="54" y="51.84" width="334.8" height="332.64"/>
  </clipPath>
 </defs>
</svg>
